<?xml version="1.0" standalone="no"?>
<!DOCTYPE svg PUBLIC "-//W3C//DTD SVG 1.1//EN" "http://www.w3.org/Graphics/SVG/1.1/DTD/svg11.dtd" >
<svg xmlns="http://www.w3.org/2000/svg">
<metadata></metadata>
<defs>
<font id="scalabold_italic" horiz-adv-x="512" >
<font-face units-per-em="2048" ascent="1638" descent="-410" />
<missing-glyph horiz-adv-x="500" />
<glyph horiz-adv-x="2048" />
<glyph horiz-adv-x="2048" />
<glyph unicode="&#xd;" horiz-adv-x="2048" />
<glyph unicode=" " />
<glyph unicode="!" horiz-adv-x="577" d="M184 113q0 50 48 94.5t102 44.5q43 0 84 -44t41 -91q0 -50 -49 -95t-103 -45q-42 0 -82.5 44.5t-40.5 91.5zM266 393l105 1032l305 84l-246 -1116h-164z" />
<glyph unicode="&#x22;" horiz-adv-x="837" d="M283 885l73 463h172l-73 -463h-172zM612 885l74 463h170l-74 -463h-170z" />
<glyph unicode="#" horiz-adv-x="1331" d="M170 420l53 151h221l82 234h-221l53 149h224l139 394h156l-138 -394h258l138 394h161l-137 -394h211l-53 -149h-213l-80 -234h215l-53 -151h-217l-148 -420h-162l148 420h-260l-148 -420h-159l149 420h-219zM604 571h256l84 234h-260z" />
<glyph unicode="$" horiz-adv-x="1112" d="M92 92l164 209q53 -81 83 -111t110 -86l83 -2l74 467q-16 13 -50 38q-71 53 -108 85t-85 88t-64 118t-4 136q22 149 137.5 241t302.5 105l19 119h94l-19 -117q89 0 151.5 -10.5t96 -24t99.5 -46.5l22 -11l-168 -194q-49 79 -72 104t-90 64h-57l-70 -439q132 -93 172 -128 q129 -114 146 -246q5 -43 0 -89q-15 -163 -137 -267.5t-314 -114.5l-18 -119h-94l16 112q-180 12 -253.5 33t-166.5 86zM541 1081q-9 -59 14 -98t102 -100l60 372q-73 -12 -119 -57.5t-57 -116.5zM629 113q71 12 123.5 62.5t62.5 119.5q12 72 -16.5 122.5t-106.5 100.5z" />
<glyph unicode="%" horiz-adv-x="1740" d="M70 1014q0 149 105 254.5t253 105.5q149 0 253.5 -105.5t104.5 -254.5t-104.5 -254t-253.5 -105q-148 0 -253 105t-105 254zM174 -94l1180 1501h194l-1179 -1501h-195zM227 1014q0 -83 59 -142t142 -59q84 0 142.5 58.5t58.5 142.5t-58.5 142t-142.5 58q-83 0 -142 -58.5 t-59 -141.5zM954 332q0 149 105 253.5t254 104.5q148 0 253 -104.5t105 -253.5q0 -148 -105 -253.5t-253 -105.5q-149 0 -254 105.5t-105 253.5zM1112 332q0 -84 58.5 -142.5t142.5 -58.5q83 0 141.5 59t58.5 142t-58.5 141.5t-141.5 58.5q-85 0 -143 -58t-58 -142z" />
<glyph unicode="&#x26;" horiz-adv-x="1206" d="M61 272q0 76 22 166.5t66 181t102.5 165t140.5 121t171 46.5q111 0 193 -44.5t82 -121.5v-69l-226 -178l131 -183q119 133 181.5 339.5t62.5 404.5h-215l35 86h510l-33 -86h-170q-4 -128 -19 -235.5t-47.5 -219t-91 -212.5t-141.5 -187l174 -254q18 -26 33 -45t28 -31 t21 -19t20 -9.5t17 -3t18.5 0t18.5 0.5q26 0 50.5 19.5t61.5 70.5l84 -63q-16 -18 -42.5 -49.5t-41 -48.5t-40.5 -40t-49 -34.5t-57.5 -20t-74.5 -8.5q-56 0 -106 33.5t-107 114.5l-182 258q-105 -82 -189 -107.5t-194 -25.5q-56 0 -115 10q-82 116 -82 278zM297 416 q0 -295 90 -295q36 0 68 17.5t120 82.5l-196 326q124 33 187 95.5t63 113.5q0 49 -18.5 72.5t-65.5 23.5q-5 0 -14 0.5t-11.5 0t-14.5 -3t-27 -7t-44 -13.5q-76 -123 -106.5 -211.5t-30.5 -201.5z" />
<glyph unicode="'" d="M309 885l74 463h170l-74 -463h-170z" />
<glyph unicode="(" horiz-adv-x="837" d="M256 84q-9 155 18 330q28 173 86.5 329t159.5 330q61 103 97.5 154t103.5 125h158q-124 -182 -224 -442.5t-137 -495.5q-37 -236 -19.5 -497t81.5 -441h-158q-43 76 -63.5 127t-47.5 151q-46 175 -55 330z" />
<glyph unicode=")" horiz-adv-x="837" d="M92 -524q122 181 222 442t137 496t20.5 496t-80.5 442h158q40 -71 58.5 -120.5t49.5 -158.5q47 -173 56 -329.5t-19 -329.5q-28 -176 -86 -332.5t-159 -327.5q-64 -106 -99.5 -156.5t-99.5 -121.5h-158z" />
<glyph unicode="*" horiz-adv-x="1024" d="M94 983l68 209l327 -180l-24 -76zM205 637l272 256l66 -49l-158 -338zM455 1403h221l-70 -367h-82zM584 846l65 49l273 -256l-179 -131zM637 1012l328 178l67 -209l-370 -47z" />
<glyph unicode="+" horiz-adv-x="1126" d="M78 401v168h401v402h168v-402h402v-168h-402v-401h-168v401h-401z" />
<glyph unicode="," d="M57 -207q81 58 118.5 102t45.5 89q6 43 -14.5 69t-75.5 43q37 65 72.5 91t87.5 26q64 0 95 -38.5t20 -104.5q-24 -167 -277 -357z" />
<glyph unicode="-" horiz-adv-x="563" d="M129 354l37 230h426l-37 -230h-426z" />
<glyph unicode="." d="M129 115q0 57 40 97t97 40t97 -40t40 -97t-40 -97.5t-97 -40.5t-97 40.5t-40 97.5z" />
<glyph unicode="/" horiz-adv-x="837" d="M-2 -498l811 1850h154l-809 -1850h-156z" />
<glyph unicode="0" horiz-adv-x="1081" d="M135 401q0 82 25 164.5t72.5 155t111.5 128.5t149 89t177 33q166 0 288.5 -121.5t122.5 -300.5q0 -119 -38 -224t-105.5 -183t-169 -123.5t-221.5 -45.5q-168 0 -290 121.5t-122 306.5zM336 418q0 -134 64 -211.5t159 -77.5q144 0 233 113.5t89 285.5q0 137 -59 211 t-165 74q-77 0 -139.5 -34t-101.5 -90t-59.5 -126t-20.5 -145z" />
<glyph unicode="1" horiz-adv-x="747" d="M102 0l13 86h176l104 682l-213 -92l-39 92l424 176h97l-138 -858h170l-12 -86h-582z" />
<glyph unicode="2" horiz-adv-x="878" d="M18 0l11 72l340 258q150 114 199 192.5t55 190.5q3 62 -24 97.5t-79 35.5q-67 0 -117.5 -35.5t-146.5 -134.5l-88 82q118 119 201.5 161t208.5 42q116 0 198 -65t82 -167q0 -92 -57 -185t-168 -175l-289 -213h522l-78 -156h-770z" />
<glyph unicode="3" horiz-adv-x="825" d="M-131 -446l82 129q120 -80 213 -80q52 0 110.5 34t109 90.5t83.5 140t33 173.5q0 108 -50 171.5t-145 63.5h-80l21 78q145 77 205.5 161t68.5 204q3 52 -32 86.5t-68 34.5q-53 0 -96.5 -17.5t-104.5 -74.5l-51 71q138 144 342 144q111 0 183.5 -56.5t72.5 -154.5 q0 -195 -291 -355q112 -2 188 -80t76 -206q0 -117 -47 -230.5t-128.5 -203t-202 -144.5t-257.5 -55q-119 0 -235 76z" />
<glyph unicode="4" horiz-adv-x="968" d="M-33 0l4 37l799 934h127l-131 -832h231l-84 -139h-163l-72 -498h-201l72 498h-582zM229 139h326l92 506z" />
<glyph unicode="5" horiz-adv-x="854" d="M-18 -440l88 131q82 -82 184 -82q120 0 197 124.5t77 303.5q0 158 -64.5 237t-223.5 103l82 567h583l-121 -182h-350l-43 -254q184 -25 281.5 -121.5t97.5 -259.5q0 -165 -84 -317t-218 -243t-275 -91q-64 0 -113.5 18t-97.5 66z" />
<glyph unicode="6" horiz-adv-x="1128" d="M168 449q0 379 199 692q238 375 581 375q142 0 256 -80l-131 -179q-37 54 -84.5 94t-89.5 40q-75 0 -164.5 -80.5t-165.5 -212.5q-151 -264 -151 -645q0 -169 50 -269t122 -100t127.5 36.5t86.5 96t46.5 125t15.5 133.5q0 135 -48 198.5t-167 63.5h-90l27 99 q85 20 139 20q163 0 275 -99.5t112 -254.5q0 -140 -72 -261.5t-199 -194.5t-278 -73q-110 0 -201.5 64t-143.5 173.5t-52 238.5z" />
<glyph unicode="7" horiz-adv-x="1001" d="M102 -406q91 72 137.5 121.5t106.5 134.5q89 131 143 244l316 662h-453l-37 -189h-118l55 377h786l-10 -78l-418 -843q-114 -230 -248 -402q-54 -71 -116 -145z" />
<glyph unicode="8" horiz-adv-x="1044" d="M123 289q0 97 63.5 199t173.5 190l138 108l-115 136q-88 106 -88 221q0 159 128.5 264.5t309.5 105.5q148 0 232 -75t84 -195q0 -72 -57 -162t-142 -159l-102 -84l149 -156q65 -68 92 -123.5t27 -116.5q0 -133 -70.5 -241t-189.5 -168t-260 -60q-169 0 -271 83.5 t-102 232.5zM340 281q0 -87 55 -148t115 -61q108 0 186 76.5t78 209.5q0 62 -15 108t-65 101l-119 133l-90 -77q-84 -72 -114.5 -154t-30.5 -188zM541 1186q0 -104 57 -176l72 -92l75 65q30 26 61.5 98t31.5 156q0 80 -35 129t-82 49q-72 0 -126 -63.5t-54 -165.5z" />
<glyph unicode="9" horiz-adv-x="1128" d="M55 -440l131 178q37 -54 84.5 -93.5t89.5 -39.5q79 0 173 72.5t167 199.5q142 248 142 615q0 169 -50 268.5t-122 99.5t-127.5 -36.5t-87 -96t-47 -125t-15.5 -133.5q0 -135 48 -198.5t167 -63.5h90l-26 -98q-89 -21 -140 -21q-163 0 -275 99.5t-112 254.5 q0 140 72 261.5t199 194.5t278 73q110 0 202 -64t144 -173t52 -238q0 -365 -189 -662q-225 -354 -592 -354q-142 0 -256 80z" />
<glyph unicode=":" d="M133 115q9 57 56 97t104 40t91.5 -40t25.5 -97t-57 -97.5t-105 -40.5t-90.5 40.5t-24.5 97.5zM244 815q9 57 55.5 97t103.5 40t90.5 -40t24.5 -97t-56 -97t-104 -40t-90 40t-24 97z" />
<glyph unicode=";" d="M49 -207q80 59 117.5 103t44.5 88q6 43 -13.5 69t-72.5 43q33 64 70 90.5t90 26.5q63 0 93 -38.5t21 -104.5q-28 -172 -278 -357zM252 815q9 57 56 97t104 40t90 -40t24 -97t-54.5 -97t-102.5 -40t-91.5 40t-25.5 97z" />
<glyph unicode="&#x3c;" horiz-adv-x="1126" d="M80 430v111l967 430v-164l-728 -322l728 -321v-164z" />
<glyph unicode="=" horiz-adv-x="1126" d="M51 223v168h1024v-168h-1024zM51 557v168h1024v-168h-1024z" />
<glyph unicode="&#x3e;" horiz-adv-x="1126" d="M80 0v164l727 321l-727 322v164l967 -430v-111z" />
<glyph unicode="?" horiz-adv-x="980" d="M264 1171q0 28 27.5 72t68.5 84q92 84 177.5 123t181.5 39q135 0 229 -79t94 -204q0 -147 -102 -274t-375 -318q44 -59 61.5 -78.5t61.5 -54.5l-190 -149q-50 58 -84.5 107t-51 78t-51.5 95q20 13 80 50t96 61.5t93.5 65t94 76.5t73.5 80t55 91t18 94q0 101 -39.5 153 t-142.5 52q-66 0 -100.5 -18t-108.5 -84q30 -36 51.5 -54.5t73.5 -54.5l-166 -125q-76 70 -100.5 104t-24.5 68zM344 104q0 49 43 89t96 40q44 0 80.5 -38.5t36.5 -85.5q0 -50 -43 -91t-98 -41q-43 0 -79 39t-36 88z" />
<glyph unicode="@" horiz-adv-x="2048" d="M193 446q0 187 65.5 348t180.5 274t277.5 177t350.5 64q150 0 293 -61.5t250.5 -163.5t173 -243t65.5 -292q0 -162 -60.5 -290.5t-175.5 -202.5t-265 -74q-220 0 -220 196q0 47 15 113l22 88q-20 -46 -45 -91t-66 -100t-86.5 -95.5t-107.5 -68.5t-127 -28q-29 0 -57 20.5 t-53.5 63t-41.5 120t-16 179.5q0 156 70.5 295t189.5 223t254 84q53 0 85.5 -9.5t84.5 -41.5l62 51h110l-116 -727q-10 -71 9 -111.5t85 -40.5q77 0 140.5 42t102 109t59.5 146t21 158q0 121 -55.5 236.5t-145 200t-207.5 135.5t-237 51q-137 0 -258 -38.5t-210.5 -106.5 t-154 -158.5t-97.5 -196t-33 -217.5q0 -129 41 -243t109.5 -196.5t156.5 -143t183 -90.5t187 -30q108 0 178.5 15t157.5 57l41 -121q-96 -44 -177 -62t-189 -18q-218 0 -406.5 110t-300.5 298t-112 407zM791 471q-2 -93 8.5 -158.5t27.5 -94t37 -28.5q38 0 73.5 39.5 t106.5 149.5q103 159 150 422q-41 52 -60.5 64t-64.5 12q-59 0 -112.5 -43t-88.5 -106t-55.5 -132t-21.5 -125z" />
<glyph unicode="A" horiz-adv-x="1376" d="M4 0l14 86h127l736 1309h114l301 -1309h86l-14 -86h-479l14 86h144l-76 332h-508l-184 -332h163l-14 -86h-424zM532 543h412l-115 528z" />
<glyph unicode="B" horiz-adv-x="1300" d="M139 0l13 86h155l189 1180h-156l12 86h596q101 0 174.5 -26.5t114 -74t57.5 -105.5q14 -47 14 -103q0 -13 -1 -27q-8 -131 -111 -215.5t-270 -87.5q190 -7 272 -105q71 -85 72 -219q0 -21 -2 -43q-11 -156 -144 -251t-350 -95h-635zM555 111h141q154 0 233 60t89 189 q2 23 2 44q0 104 -48 166q-58 75 -181 75h-150zM657 758h146q92 0 165.5 67.5t82.5 167.5q2 20 2 40q0 80 -37 136q-46 70 -139 70h-142z" />
<glyph unicode="C" horiz-adv-x="1366" d="M199 672q19 206 128.5 367.5t282.5 249t379 87.5q97 0 161 -14.5t150 -54.5l15 86h112l-57 -367h-113l21 131q-121 105 -254 105q-214 0 -372 -162.5t-183 -415.5q-4 -40 -4 -78q-1 -119 37 -222q50 -136 149 -213t226 -77q76 0 141 18.5t145 63.5l25 156h115l-43 -273 q-140 -48 -239 -67t-214 -19q-192 0 -338 93q-147 94 -217 254q-57 129 -56 278q0 37 3 74z" />
<glyph unicode="D" horiz-adv-x="1515" d="M119 0l12 86h156l188 1180h-156l13 86h618q190 0 328.5 -89t199.5 -243q42 -106 42 -227q0 -56 -9 -115q-24 -162 -94 -291.5t-172.5 -213.5t-232.5 -128.5t-277 -44.5h-616zM535 113h165q225 0 363.5 145t179.5 420q10 65 10 126q0 80 -18 152q-32 126 -122.5 203.5 t-225.5 77.5h-174z" />
<glyph unicode="E" horiz-adv-x="1189" d="M115 0l12 86h156l186 1180h-156l15 86h823l8 57h111l-51 -326h-109l25 148h-426l-78 -483h327l23 139l111 2l-64 -404l-110 -2l22 144h-328l-80 -506h465l25 151h111l-43 -272h-975z" />
<glyph unicode="F" horiz-adv-x="1169" d="M94 0l12 86h156l187 1180h-156l14 86h823l9 57h110l-51 -326h-108l24 148h-426l-78 -483h328l23 139l110 2l-63 -404l-111 -2l23 144h-328l-86 -541h137l-12 -86h-537z" />
<glyph unicode="G" horiz-adv-x="1525" d="M209 678q17 143 72 261t134.5 198.5t182 135.5t212.5 80t226 25q90 0 147.5 -12t155.5 -49l13 76h112l-57 -365h-113l25 156q-77 44 -133 61t-142 17q-216 0 -375 -156t-192 -428q-6 -46 -6 -90q0 -107 35 -202q49 -133 155 -211.5t246 -78.5q66 0 162 29l53 340h-176 l15 86h573l-14 -86h-154l-66 -414q-167 -44 -263 -61t-197 -17q-220 0 -372.5 90t-217.5 249q-48 115 -48 255q0 54 7 111z" />
<glyph unicode="H" horiz-adv-x="1710" d="M119 0l12 86h156l188 1180h-156l13 86h553l-13 -86h-153l-84 -521h665l84 521h-153l12 86h553l-12 -86h-156l-188 -1180h155l-12 -86h-553l12 86h154l86 539h-666l-86 -539h154l-12 -86h-553z" />
<glyph unicode="I" horiz-adv-x="794" d="M111 0l12 86h156l188 1180h-156l13 86h553l-13 -86h-153l-189 -1180h154l-12 -86h-553z" />
<glyph unicode="J" horiz-adv-x="782" d="M-293 -412l135 187q58 -60 127.5 -109t126.5 -72q18 16 34.5 36.5t29 38.5t24.5 44.5t20 44t16.5 49t13 46t11 49.5t8.5 45.5t8 46.5t7 41q52 335 195 1231h-154l15 86h553l-15 -86h-155q-173 -1098 -187 -1182q-16 -89 -37.5 -166.5t-62 -161.5t-92 -143.5t-130 -98 t-173.5 -38.5q-102 0 -174 27t-144 85z" />
<glyph unicode="K" horiz-adv-x="1337" d="M119 0l12 86h156l186 1178l-154 2l13 86h553l-13 -86h-153l-189 -1180h154l-12 -86h-553zM641 668l541 598h-178l12 86h491l-12 -86h-158l-467 -506l398 -674h98l-12 -86h-326z" />
<glyph unicode="L" horiz-adv-x="1087" d="M88 0l12 86h156l188 1180h-155l12 86h553l-12 -86h-154l-182 -1145h436l25 151h110l-43 -272h-946z" />
<glyph unicode="M" horiz-adv-x="1845" d="M76 0l12 86h172l186 1180h-172l15 86h342l334 -973l600 973h385l-15 -86h-172l-186 -1180h172l-12 -86h-588l12 86h172l142 885l-609 -991l-340 972l-137 -866h172l-12 -86h-473z" />
<glyph unicode="N" horiz-adv-x="1509" d="M109 0l12 86h170l170 1075l-49 105h-148l15 86h387l530 -969l139 883h-161l14 86h463l-15 -86h-172l-202 -1289h-123l-572 1033l-145 -924h162l-13 -86h-462z" />
<glyph unicode="O" horiz-adv-x="1540" d="M209 676q20 156 90 288.5t172.5 222t232.5 139.5t271 50q185 0 321 -93q134 -93 194 -253q40 -109 41 -233q0 -59 -9 -121q-24 -163 -94.5 -296.5t-173 -222t-231 -136.5t-269.5 -48q-185 0 -319 93q-135 94 -193 254q-41 112 -40 242q0 56 7 114zM477 676 q-7 -56 -6 -110q-1 -94 19 -180q32 -136 107 -218t175 -82q175 0 307 157t174 433q10 64 10 124q0 85 -19 164q-32 136 -109.5 218t-178.5 82q-172 0 -310.5 -165t-168.5 -423z" />
<glyph unicode="P" horiz-adv-x="1228" d="M119 0l12 86h156l188 1180h-156l13 86h579q128 0 215 -54q86 -56 120 -142q26 -67 26 -145q0 -23 -2 -48q-19 -184 -147.5 -296t-311.5 -112q-48 0 -109 12l15 101q27 -6 55 -6q87 0 154.5 68.5t89.5 195.5q8 46 8 86q0 80 -32 138q-48 86 -156 87h-123l-183 -1151h175 l-13 -86h-573z" />
<glyph unicode="Q" horiz-adv-x="1540" d="M211 674q17 157 86.5 289.5t173 222.5t235 140t273.5 50q137 0 249.5 -55t183.5 -149t101 -223q18 -76 18 -157q0 -57 -9 -116q-76 -504 -512 -662q-152 -104 -295 -172q242 -113 409 -163t303 -50q94 0 158.5 45t87.5 133h101q-9 -84 -46.5 -150.5t-89 -104t-104 -57 t-100.5 -19.5q-203 0 -311.5 21.5t-315.5 103.5q-64 24 -131.5 55t-168.5 79t-177 83q76 23 173 62.5t155 67.5l59 29h-12q-75 0 -138 23q-200 74 -293 248q-70 132 -70 310q0 56 7 116zM479 676q-7 -56 -7 -109q0 -93 20 -179q32 -136 106.5 -219t173.5 -83q175 0 307 158 t174 432q10 62 10 122q0 84 -19 164q-32 136 -107.5 219t-171.5 83q-178 0 -315.5 -158t-170.5 -430z" />
<glyph unicode="R" horiz-adv-x="1339" d="M119 0l12 86h156l188 1180h-156l13 86h583q188 0 291 -100q84 -82 84 -207q0 -28 -4 -58q-20 -139 -113.5 -237.5t-230.5 -124.5l221 -447q44 -90 119 -90h84l-14 -88h-240q-91 0 -121.5 19.5t-70.5 101.5l-232 481h-76l-82 -516h154l-12 -86h-553zM629 705h121 q106 0 184.5 76.5t95.5 197.5q5 30 5 57q0 74 -37 128q-50 72 -156 73h-129z" />
<glyph unicode="S" horiz-adv-x="1150" d="M170 -18l57 368h113l-23 -151q60 -55 115.5 -78t130.5 -23q221 0 248 183q2 17 2 34q1 45 -17 87q-24 57 -70.5 101.5t-104.5 88t-115.5 89.5t-103 96.5t-69.5 118.5q-17 48 -17 101q0 22 3 45q21 159 152 246.5t324 87.5q87 0 213 -45l10 62h110l-55 -351h-110l22 142 q-60 42 -104.5 59t-100.5 17q-84 0 -147 -43t-70 -119q-1 -12 -1 -25q0 -37 12 -71q16 -46 45 -82t68 -70t83 -66.5t87.5 -66.5t82 -74t66.5 -84.5t41 -102.5q8 -38 8 -80q0 -22 -2 -46q-11 -97 -52 -167.5t-106 -111t-143 -59.5t-172 -19q-88 0 -154.5 19t-132.5 61 l-10 -71h-113z" />
<glyph unicode="T" horiz-adv-x="1228" d="M176 1061l53 348h113l-8 -57h950l8 57h113l-53 -348h-113l27 170h-353l-182 -1145h197l-13 -86h-639l13 86h198l183 1145h-355l-26 -170h-113z" />
<glyph unicode="U" horiz-adv-x="1597" d="M322 1266l12 86h553l-13 -86h-153l-121 -764q-11 -58 -11 -111q0 -23 2 -45q7 -72 32.5 -126t83 -84t141.5 -30q205 0 312.5 100.5t139.5 295.5l119 762h-170l15 88h475l-13 -86h-172l-122 -770q-83 -523 -633 -523q-226 1 -356 129q-104 102 -104 255q0 39 7 81l131 828 h-155z" />
<glyph unicode="V" horiz-adv-x="1353" d="M203 1266l14 86h537l-15 -86h-174l217 -940l518 940h-147l14 86h416l-14 -86h-119l-715 -1301h-100l-311 1301h-121z" />
<glyph unicode="W" horiz-adv-x="1929" d="M203 1266l14 86h477l-14 -86h-115l217 -940l234 417l-123 523h-115l15 86h770l-15 -86h-145l-199 -365l148 -614l538 979h-147l14 86h402l-15 -86h-102l-715 -1301h-131l-137 588l-324 -588h-110l-301 1301h-121zM1118 1266l47 -205l115 205h-162z" />
<glyph unicode="X" horiz-adv-x="1275" d="M-61 0l12 86h155l521 569l-289 611h-158l13 86h569l-12 -86h-136l191 -406l366 406h-180l13 86h514l-13 -86h-162l-479 -531l310 -649h161l-12 -86h-571l12 86h133l-209 446l-412 -446h189l-12 -86h-514z" />
<glyph unicode="Y" horiz-adv-x="1253" d="M201 1266l12 86h553l-12 -86h-152l219 -449l344 449h-174l13 86h477l-13 -86h-147l-432 -561l-98 -619h155l-12 -86h-553l12 86h154l90 565l-307 615h-129z" />
<glyph unicode="Z" horiz-adv-x="1368" d="M123 0l8 61l959 1170h-662l-27 -164h-110l53 342h111l-9 -57h975l-10 -64l-950 -1167h696l33 211h110l-51 -332h-1126z" />
<glyph unicode="[" d="M31 -498l295 1850h364l-20 -127h-174l-254 -1596h174l-21 -127h-364z" />
<glyph unicode="\" horiz-adv-x="837" d="M293 1352h156l219 -1850h-154z" />
<glyph unicode="]" d="M-35 -498l19 111h174l258 1628h-174l18 111h365l-295 -1850h-365z" />
<glyph unicode="^" horiz-adv-x="1024" d="M94 549l426 854h68l426 -854h-164l-293 616h-12l-295 -616h-156z" />
<glyph unicode="_" horiz-adv-x="1024" d="M-12 -168l24 168h1024l-24 -168h-1024z" />
<glyph unicode="`" horiz-adv-x="528" d="M475 1352h191l139 -330h-111z" />
<glyph unicode="a" horiz-adv-x="1024" d="M68 252q0 92 20 188t63 188t102.5 164t146 116t186.5 44q106 0 170 -49l16 35h178l-100 -576q-14 -91 -14 -133v-10q24 26 38.5 45t38 52.5t41.5 58.5l68 -51q-101 -155 -197 -248q-74 -72 -151 -94q-22 33 -31 67t-16 90q-2 17 -2 35q0 33 6 70l8 57q-31 -60 -69 -113.5 t-89.5 -104t-116.5 -80.5t-135 -30q-72 0 -116.5 74.5t-44.5 204.5zM299 309v-7q0 -69 18 -116q19 -49 48 -49q22 0 52 21t52 45q97 111 144 226t110 349q-21 37 -61.5 56.5t-86.5 19.5q-114 0 -193.5 -153.5t-82.5 -391.5z" />
<glyph unicode="b" horiz-adv-x="954" d="M82 0l217 1364h-190v51l333 94h99l-154 -913q93 170 199 263t217 93q71 0 108 -72t37 -206q0 -129 -44.5 -265.5t-117.5 -242.5q-132 -193 -346 -193q-105 0 -170 50l-34 -23h-154zM303 147q22 -38 63 -62t85 -24q73 0 134.5 75.5t96.5 203t35 276.5q0 76 -12 109t-41 33 q-24 0 -53.5 -21.5t-51.5 -48.5q-167 -211 -256 -541z" />
<glyph unicode="c" horiz-adv-x="772" d="M74 268q0 184 66 342t181 251t250 93q146 0 248 -94l-174 -145q-8 13 -18 37.5t-13 27.5q-21 37 -41.5 51.5t-66.5 14.5q-22 0 -96 -39q-40 -76 -72 -197.5t-35 -214.5q-1 -22 -1 -43q0 -109 18 -161q22 -62 73 -62q50 0 140.5 62.5t173.5 175.5l65 -54 q-86 -108 -137 -158.5t-113 -86.5q-70 -43 -149 -62q-83 -22 -203 -22q-54 71 -75 132.5t-21 151.5z" />
<glyph unicode="d" horiz-adv-x="999" d="M68 252q0 94 21 191t64 188.5t103 162.5t146 114.5t184 43.5q83 0 145 -32l70 444h-191v49l344 96h84q-190 -1163 -194 -1183q-3 -14 -5 -40.5t-3 -46.5v-20q25 28 41.5 50t37.5 52t39 54l70 -51q-92 -132 -127.5 -175.5t-87.5 -87.5q-64 -57 -137 -77q-17 23 -30.5 61 t-14.5 70q-3 42 -3 64q0 13 1 18l20 110q-78 -151 -186 -242.5t-230 -91.5q-72 0 -116.5 78.5t-44.5 200.5zM299 309v-7q1 -69 19 -116q20 -49 49 -49q50 0 116 74q37 42 66.5 88.5t48 83t37 95.5t27.5 93t27 111.5t28 116.5q-47 53 -142 53q-117 0 -194 -157.5t-82 -385.5z " />
<glyph unicode="e" horiz-adv-x="778" d="M63 266q0 134 41.5 261.5t108 220t153.5 148.5t175 56q125 0 188.5 -57.5t63.5 -155.5v-53l-492 -268l-6 -103q-1 -23 -1 -43q0 -70 16 -107q20 -44 55 -44h4q78 6 167.5 70t174.5 182l67 -60q-108 -150 -240.5 -238.5t-246.5 -88.5q-78 0 -135 14q-47 64 -70 125.5 t-23 140.5zM315 520l256 150v112q-1 36 -17 56q-15 19 -37 18h-5q-15 -1 -27.5 -4t-18 -5t-25 -11.5t-29.5 -14.5q-26 -42 -56 -137t-41 -164z" />
<glyph unicode="f" horiz-adv-x="524" d="M-385 -434l137 170q47 -57 100 -87.5t119 -51.5q83 32 135 364l132 844h-170l4 67l188 62l39 223q28 161 153.5 258.5t278.5 97.5q165 0 289 -96l-146 -184q-69 86 -131 119l-77 41q-79 -24 -107.5 -72t-52.5 -188l-35 -205h209l-18 -123h-213l-140 -916 q-28 -177 -153 -295t-283 -118q-116 0 -258 90z" />
<glyph unicode="g" horiz-adv-x="858" d="M-74 -324q80 125 215 240q-54 9 -88.5 28t-62.5 54q73 146 213 278q-123 119 -123 250q0 111 54 210t146.5 158.5t198.5 59.5q48 0 88 -3t56 -5t52 -9.5t44 -8.5h160l122 26l-63 -157h-168q29 -98 29 -168q0 -164 -121 -286t-285 -122q-30 0 -49.5 5.5t-56.5 21.5 q-51 -79 -51 -105q0 -47 71 -47h330q99 0 153 -58.5t54 -150.5q0 -76 -37.5 -150t-100.5 -131.5t-153.5 -93.5t-190.5 -36q-157 0 -264 42t-172 158zM170 -258.5v-19v-17.5q0 -57 65 -93t140 -36q122 0 215.5 83.5t93.5 168.5q0 61 -78 61h-370q-14 -18 -24.5 -34 t-17.5 -27.5t-11.5 -26t-7 -21.5t-4 -21t-1.5 -17.5zM295 567q0 -250 139 -250q72 0 116 82t44 213q0 252 -129 252q-74 0 -122 -85t-48 -212z" />
<glyph unicode="h" horiz-adv-x="1064" d="M80 0l217 1364h-191v49l330 96h105l-160 -929q138 199 242 283.5t217 84.5q43 0 67.5 -33t24.5 -90q0 -32 -17 -139l-81 -502q83 78 159 191l68 -51q-98 -135 -142.5 -186.5t-99.5 -92.5q-38 -29 -58.5 -40t-64.5 -21q-73 64 -73 166q0 35 8 79l71 441q5 35 5 58 q0 44 -19 44q-30 0 -105 -82t-155 -211q-47 -78 -70.5 -146t-35.5 -169l-21 -164h-221z" />
<glyph unicode="i" horiz-adv-x="575" d="M72 803v49l303 96h94l-125 -762q74 71 92 95q67 86 72 94l63 -51q-86 -123 -138 -182.5t-109 -102.5q-55 -44 -125 -55q-64 72 -64 145q0 49 8 102l88 572h-159zM295 1305q6 63 45 105t96 42t87 -42q25 -35 25 -83q0 -10 -1 -20q-6 -63 -45 -105.5t-96 -42.5t-87 42 q-25 35 -25 84q0 10 1 20z" />
<glyph unicode="j" horiz-adv-x="501" d="M-367 -444l115 174q42 -40 100.5 -79t104.5 -50q66 33 91 102t51 233q3 22 5 33l129 834h-159v47l311 98h94l-168 -1052q-28 -175 -150 -292.5t-274 -117.5q-73 0 -130 13.5t-120 56.5zM295 1305q6 63 45 105t96 42t87 -42q25 -34 25 -83q0 -10 -1 -20q-6 -63 -45 -105.5 t-96 -42.5t-87 42q-25 35 -25 84q0 10 1 20z" />
<glyph unicode="k" horiz-adv-x="944" d="M80 0l215 1364h-189v47l330 98h105l-150 -938q42 16 114 53t142 87.5t70 81.5q0 19 -15 37t-47 18h-69l26 80h353q-24 -68 -67 -126.5t-105 -108.5t-111.5 -82.5t-124.5 -75.5q113 -351 160 -351q9 0 24 12.5t36 38t41 50.5t48 62q14 19 21 28l67 -51q-95 -138 -193 -239 t-149 -101q-90 0 -233 499l-78 -483h-221z" />
<glyph unicode="l" horiz-adv-x="497" d="M80 1364v49l334 96h94l-215 -1323q74 71 92 95q67 86 72 94l63 -51q-85 -122 -138 -181.5t-110 -103.5q-55 -44 -125 -55q-63 71 -63 145q0 49 8 102l178 1133h-190z" />
<glyph unicode="m" horiz-adv-x="1630" d="M82 803v49l299 96h104l-69 -368q140 201 242.5 284.5t215.5 83.5q91 0 91 -123q0 -63 -13 -139l-20 -108q135 199 239 284.5t215 85.5q43 0 70 -33.5t27 -89.5q0 -32 -17 -139l-82 -502q91 85 160 191l68 -51q-98 -135 -142.5 -186.5t-99.5 -92.5q-37 -29 -59 -40 t-66 -21q-71 63 -71 166q0 35 8 79l71 441q5 32 5 54q0 48 -23 48q-29 0 -102 -81t-154 -212q-88 -141 -107 -315l-18 -164h-223l106 670q5 35 5 58q0 44 -19 44q-30 0 -105 -82t-155 -211q-48 -78 -71.5 -146t-35.5 -169l-20 -164h-221l127 803h-160z" />
<glyph unicode="n" horiz-adv-x="1105" d="M82 803v49l299 96h104l-69 -368q139 199 242.5 283.5t215.5 84.5q43 0 68 -33t25 -90q0 -32 -17 -139l-82 -502q86 80 160 191l68 -51q-98 -135 -142.5 -186.5t-99.5 -92.5q-38 -29 -58.5 -40t-64.5 -21q-74 65 -74 166q0 30 9 79l71 441q5 35 5 58q0 44 -19 44 q-30 0 -105 -82t-155 -211q-48 -78 -71.5 -146t-35.5 -169l-20 -164h-221l127 803h-160z" />
<glyph unicode="o" horiz-adv-x="913" d="M41 352q4 124 48.5 236t115 191.5t164 126t192.5 46.5q68 0 124.5 -23t100 -70t66.5 -125q20 -69 21 -158q0 -12 -1 -23q-4 -124 -49.5 -233t-118 -184t-166 -118t-192.5 -43q-63 0 -118 22.5t-98.5 67t-67.5 118.5q-21 66 -21 148v21zM272 395q-1 -19 0 -38 q0 -117 27 -191q32 -86 96 -86q69 0 124.5 65t86.5 169.5t35 228.5q1 18 1 35q0 112 -29 186q-33 86 -95 86q-67 0 -123 -64.5t-87.5 -167.5t-35.5 -223z" />
<glyph unicode="p" horiz-adv-x="991" d="M-106 -498l12 78h139l197 1223h-160v51l305 94h98l-59 -350q78 157 192 255.5t226 98.5q71 0 108 -72t37 -206q0 -129 -44.5 -265.5t-117.5 -242.5q-132 -193 -346 -193q-85 0 -145 33l-70 -426h176l-12 -78h-536zM344 147q22 -38 63 -62t85 -24q73 0 134.5 75.5 t96.5 203t35 276.5q0 76 -12 109t-41 33t-75.5 -39t-76.5 -86q-78 -124 -118.5 -213.5t-90.5 -272.5z" />
<glyph unicode="q" horiz-adv-x="923" d="M68 252q0 73 14.5 151.5t41.5 157.5t71 149t98 124t127 86t155 32q106 0 170 -49l56 35h145l-217 -1358h115l-13 -78h-536l12 78h205l113 694q-86 -160 -182.5 -230.5t-229.5 -70.5q-61 0 -103 79.5t-42 199.5zM299 309q0 -76 17 -124t46 -48q12 0 52.5 27.5t58.5 46.5 q85 89 135.5 212.5t112.5 354.5q-21 36 -65 56t-91 20q-74 0 -135 -73t-96 -198t-35 -274z" />
<glyph unicode="r" horiz-adv-x="722" d="M82 803v49l309 96h88l-51 -276q38 68 80.5 126t97.5 103t101 45q71 0 118 -72l-149 -223q-19 18 -46.5 24t-51.5 1q-26 -5 -57 -29t-52 -65q-42 -85 -67.5 -162.5t-41.5 -194.5l-30 -225h-221l129 803h-156z" />
<glyph unicode="s" horiz-adv-x="671" d="M43 0l41 252h98q-2 -7 -10 -74q0 -46 37.5 -76t103.5 -30q59 0 94 44q37 46 37 112q0 44 -32 85q-34 43 -81.5 79.5t-94.5 75.5q-48 38 -81 92q-32 52 -32 112q-1 82 47 148q46 64 117.5 96t150.5 32q24 0 53.5 -3t49 -6t20.5 -3h129l-39 -252h-94q12 54 12 92 q0 40 -29 65t-83 25q-51 0 -87 -40q-38 -43 -38 -101q0 -40 32 -79q34 -40 81.5 -76t95 -76t80.5 -98q32 -56 32 -120q0 -88 -55 -156q-54 -66 -135.5 -99t-173.5 -33q-24 0 -49.5 3t-41.5 6l-16 3h-139z" />
<glyph unicode="t" horiz-adv-x="598" d="M47 805l4 67l187 54l53 276h207l-45 -274h213l-23 -123h-211l-96 -617q75 58 110.5 89t102.5 100l65 -60q-166 -178 -317 -282q-50 -35 -121 -51q-59 53 -59 145q0 34 10 100l88 576h-168z" />
<glyph unicode="u" horiz-adv-x="1116" d="M100 803v49l301 96h103l-111 -690q-6 -42 -6 -65q0 -10 1 -17q4 -22 22 -22q28 0 92.5 68.5t148.5 197.5q39 61 64 124.5t33 103t20 114.5l27 166h219l-117 -744q75 72 107 117l53 76l67 -51q-91 -127 -138 -182.5t-101 -98.5q-65 -51 -166 -61q-36 71 -39 125 q-1 13 -1 26q0 57 11 121l15 76q-111 -167 -220.5 -261t-208.5 -94q-122 0 -122 144q0 16 18 135l86 547h-158z" />
<glyph unicode="v" horiz-adv-x="860" d="M23 803v49l270 96h102v-745q51 45 88 84.5t56 63.5t67 87q32 43 51 80.5t26 71.5t8 48.5t1 43.5q0 45 -33 86t-94 72l215 114q59 -51 84 -99.5t25 -111.5q0 -53 -29.5 -113t-97.5 -163q-97 -145 -223 -271.5t-258 -211.5h-93v819h-165z" />
<glyph unicode="w" horiz-adv-x="1335" d="M23 803v49l270 96h102v-745q77 69 159 170t130 188v242h-145v49l249 96h103v-745q51 45 88 84.5t56 63.5t67 87q32 43 51 80.5t26 71.5t8 48.5t1 43.5q0 45 -33 86t-94 72l215 114q58 -51 83 -99.5t25 -111.5q0 -54 -30.5 -117t-96.5 -159q-122 -174 -236 -290t-245 -193 h-92v397q-192 -273 -403 -397h-93v819h-165z" />
<glyph unicode="x" horiz-adv-x="1052" d="M43 90l113 168q7 -9 20 -30t23 -30.5t22 -9.5q40 0 68 20.5t61 63.5l121 158l-131 303q-11 24 -19.5 35t-11.5 11.5t-12 0.5q-8 0 -21.5 -10t-30.5 -28.5t-30.5 -34t-31 -37.5t-23.5 -29l-64 49l74 92q65 81 131.5 125.5t108.5 44.5q62 0 90 -63l125 -285l174 219 q42 54 88.5 90.5t75.5 36.5q33 0 63 -18.5t78 -75.5l-111 -149q-6 8 -17 21.5t-16.5 20t-13.5 14.5t-14 11.5t-12 3.5q-31 0 -52 -18.5t-63 -71.5q-144 -184 -146 -184l113 -271q17 -42 26.5 -52.5t22.5 -10.5q9 0 22.5 10.5t31 31t32 39.5t36 47.5t32.5 43.5l69 -53 l-98 -133q-64 -87 -127.5 -129.5t-103.5 -42.5q-35 0 -54 12.5t-32 46.5l-125 291q0 1 -37.5 -52t-74.5 -106l-38 -53q-40 -56 -86.5 -94.5t-74.5 -38.5q-69 0 -150 100z" />
<glyph unicode="y" horiz-adv-x="870" d="M16 803v65l351 82l157 -708l82 116q83 119 107 171.5t24 129.5q0 87 -119 189l189 106q49 -46 70.5 -95.5t21.5 -117.5q0 -37 -9.5 -77.5t-32 -88t-39.5 -82t-53.5 -88.5t-52 -77t-56.5 -78.5t-46 -63.5q-65 -92 -102 -270l-70 -334h156l-16 -80h-521l15 78h149l92 465 q9 41 9 78q0 67 -27 180l-115 500h-164z" />
<glyph unicode="z" horiz-adv-x="999" d="M16 -16q17 64 42.5 98.5t127.5 136.5l506 508h-33q-164 0 -321 78l-150 -164l-65 37q68 132 140 201t161 69q27 0 115 -18l264 -53l100 71h96q-23 -64 -53 -107.5t-92 -105.5l-530 -526h20q171 0 406 -82l147 166l68 -47q-30 -46 -43 -66t-36.5 -53.5t-36 -47t-34 -34.5 t-38.5 -28.5t-40.5 -17t-49 -12.5t-56.5 -3q-77 0 -139 16l-261 74l-127 -90h-88z" />
<glyph unicode="{" horiz-adv-x="837" d="M158 475l12 74h76q75 0 125 62t69 177l74 463q44 273 309 273h168l-12 -84h-80q-72 0 -119.5 -51.5t-62.5 -147.5l-74 -467q-22 -137 -70.5 -193t-160.5 -69q107 -15 139 -70.5t10 -191.5l-76 -475q-15 -97 15 -149t102 -52h80l-14 -98h-168q-268 0 -224 274l78 486 q17 115 -14.5 177t-106.5 62h-75z" />
<glyph unicode="|" d="M98 -524l324 2048h156l-324 -2048h-156z" />
<glyph unicode="}" horiz-adv-x="837" d="M6 -522l12 84h80q73 0 120.5 51t62.5 147l73 467q22 137 71 192t161 70q-108 15 -141 71t-11 190l76 477q15 97 -14 147.5t-101 50.5h-82l15 99h170q266 0 223 -273l-76 -485q-19 -115 12.5 -177.5t106.5 -62.5h76l-13 -73h-75q-75 0 -125.5 -62.5t-69.5 -177.5l-74 -463 q-43 -272 -309 -272h-168z" />
<glyph unicode="~" horiz-adv-x="1114" d="M8 455q173 137 326 137q66 0 166 -43l102 -43q86 -37 146 -37q70 0 129.5 22t134.5 76l92 -145q-169 -125 -342 -125q-63 0 -116 15t-150 61q-87 41 -146 41q-123 0 -256 -99z" />
<glyph unicode="&#xa0;" />
<glyph unicode="&#xa1;" horiz-adv-x="577" d="M72 -494l245 1117h164l-104 -1033zM289 899q0 50 48.5 94.5t102.5 44.5q42 0 82.5 -44t40.5 -91q0 -50 -47.5 -94.5t-101.5 -44.5q-43 0 -84 44t-41 91z" />
<glyph unicode="&#xa2;" horiz-adv-x="907" d="M98 442q17 124 72.5 222.5t137 160.5t182 94.5t212.5 32.5l52 154h94l-55 -160q65 -10 102 -25.5t106 -58.5l-147 -147q-28 46 -45.5 63.5t-58.5 42.5l-248 -702q66 -13 102 -13q47 0 96 15.5t134 56.5l34 -90q-122 -68 -197.5 -91.5t-170.5 -23.5q-24 0 -47 4l-54 -153 h-94l64 170q-89 11 -157 77.5t-98 165.5t-16 205zM350 467q-16 -107 9.5 -201t60.5 -114l242 692q-116 -20 -201.5 -116t-110.5 -261z" />
<glyph unicode="&#xa3;" horiz-adv-x="1179" d="M-49 -463q3 58 70.5 108t177.5 76q48 88 100 240l78 227h-250l39 97l252 41l295 843q54 154 170 242t264 88q115 0 186 -44t66 -112q-3 -65 -76 -104q-32 -16 -61 -16q-83 0 -101 96q-8 43 -18 61.5t-27 18.5q-40 0 -101.5 -86t-96.5 -191l-275 -796h391l-49 -138h-383 l-110 -299q-20 -51 -36 -78t-57 -79h11q65 0 116 -14t127 -54q71 -37 110.5 -50t76.5 -13t60 15t26 42q3 50 -72 133l193 119q45 -67 61 -110.5t12 -88.5q-6 -107 -105 -170t-259 -63q-136 0 -219 55l-88 57q-27 18 -52 26.5t-69 14.5q-86 -83 -159.5 -119t-156.5 -36 q-31 0 -47.5 16.5t-13.5 44.5z" />
<glyph unicode="&#xa4;" horiz-adv-x="1024" d="M14 330l17 78l153 24q18 137 27 170h-143l16 78l170 22q67 154 178.5 244t241.5 90q146 0 248 -94l-91 -151q-49 64 -99.5 100.5t-123.5 36.5q-22 0 -96 -39q-45 -85 -68 -184h365l-21 -103h-368q-9 -48 -14 -170h350l-21 -102h-327q6 -90 29 -145.5t59 -55.5 q111 0 178.5 12t156.5 56l41 -84q-103 -69 -227.5 -99t-372.5 -30q-96 125 -96 346h-162z" />
<glyph unicode="&#xa5;" horiz-adv-x="1259" d="M201 1266l12 86h553l-12 -86h-152l219 -449l344 449h-174l13 86h477l-13 -86h-147l-432 -561h307l-14 -103h-308l-28 -170h307l-16 -102h-308l-38 -244h155l-12 -86h-553l12 86h154l39 244h-303l16 102h303l29 170h-303l14 103h268l-280 561h-129z" />
<glyph unicode="&#xa6;" d="M98 -524l148 915h155l-147 -915h-156zM274 608l148 916h156l-148 -916h-156z" />
<glyph unicode="&#xa7;" horiz-adv-x="706" d="M-170 -397l160 137q13 -54 59 -105t94 -51q93 0 170.5 68t118.5 178q12 31 20.5 65t14.5 61t10 72.5t6 69.5t3 84.5t1 85v103v108.5q0 92 1 137t4.5 133.5t14 145t28 129.5t47 132.5t69.5 109.5l62 -13q-33 -69 -47.5 -182.5t-13.5 -201.5t7.5 -218t6.5 -164 q3 -257 -46 -479.5t-135 -337.5q-72 -97 -172 -145.5t-207 -48.5q-190 0 -276 127zM131 -266q28 57 43.5 135.5t19 169.5t2.5 163.5t-5.5 166t-4.5 129.5q-4 257 44.5 476.5t136.5 342.5q140 194 387 194q77 0 151 -31.5t117 -97.5l-160 -135q-13 52 -58.5 98t-92.5 46 q-203 0 -293 -238q-34 -89 -45.5 -204t-9 -266t1.5 -173q-2 -45 -2.5 -134t-1.5 -144t-10.5 -136.5t-26.5 -139.5t-51 -122t-83 -113z" />
<glyph unicode="&#xa8;" horiz-adv-x="831" d="M117 1171q0 51 34.5 86t84.5 35q51 0 85.5 -35t34.5 -86q0 -50 -34.5 -84t-85.5 -34q-50 0 -84.5 34.5t-34.5 83.5zM475 1171q0 51 34.5 86t84.5 35q51 0 86 -35t35 -86q0 -50 -35 -84t-86 -34q-50 0 -84.5 34.5t-34.5 83.5z" />
<glyph unicode="&#xa9;" horiz-adv-x="2048" d="M184 498q0 171 66.5 326t178.5 267.5t268 179t327 66.5t327 -66.5t268 -179t178.5 -267.5t66.5 -326t-66.5 -327t-178.5 -269t-268 -179.5t-327 -66.5t-327 66.5t-268 179.5t-178.5 269t-66.5 327zM315 498q0 -145 56 -276.5t151 -226.5t226.5 -151.5t275.5 -56.5 t275.5 56.5t226.5 151.5t151 226.5t56 276.5q0 144 -56 275t-151 226t-226.5 151t-275.5 56t-275.5 -56t-226.5 -151t-151 -226t-56 -275zM535 487q0 136 64.5 251t185.5 185t272 70q104 0 209 -55v57h120v-295h-122v131q-64 35 -99 44.5t-88 9.5q-112 0 -189 -119t-77 -274 q0 -183 81.5 -294.5t207.5 -111.5h21h20.5t18 1t19.5 2.5t18 5t21.5 8t22.5 12t27 16.5v145h123v-219q-111 -49 -180.5 -66.5t-145.5 -17.5q-228 0 -379 145.5t-151 368.5z" />
<glyph unicode="&#xaa;" horiz-adv-x="880" d="M195 911q0 79 24 161.5t68.5 156t119.5 120t166 46.5q67 0 113 -27l8 16h154l-74 -401q-2 -7 -8 -53q10 13 30.5 42t30.5 42l72 -51q-81 -121 -147 -181q-31 -30 -57 -44t-66 -25q-47 69 -41 161q-115 -165 -264 -165q-59 0 -94 56t-35 146zM387 948q0 -100 31 -100 q11 0 30 13t31 26q66 72 99 147.5t75 227.5q-26 36 -88 36q-69 0 -122 -97t-56 -253z" />
<glyph unicode="&#xab;" horiz-adv-x="1024" d="M45 459l623 393l-13 -84l-293 -309l195 -309l-12 -87zM485 459l623 393l-12 -84l-293 -309l194 -309l-12 -87z" />
<glyph unicode="&#xac;" />
<glyph unicode="&#xad;" horiz-adv-x="563" d="M129 354l37 230h426l-37 -230h-426z" />
<glyph unicode="&#xae;" horiz-adv-x="2048" d="M184 469q0 171 66.5 327t178.5 269t268 179.5t327 66.5t327 -66.5t268 -179.5t178.5 -269t66.5 -327q0 -114 -30 -223t-84 -201t-131.5 -169.5t-169.5 -132t-201.5 -84.5t-223.5 -30t-223.5 30t-201.5 84.5t-169.5 132t-131.5 169.5t-84 201t-30 223zM315 469 q0 -115 36 -223.5t101.5 -195.5t152.5 -152.5t195.5 -101.5t223.5 -36t223.5 36t195.5 101.5t152.5 152.5t101.5 195.5t36 223.5q0 145 -56 276.5t-151 226.5t-226.5 151.5t-275.5 56.5t-275.5 -56.5t-226.5 -151.5t-151 -226.5t-56 -276.5zM578 0v96h133v762h-133v96h466 q178 0 265.5 -59.5t87.5 -194.5q0 -111 -66 -182t-157 -76l190 -305q11 -17 43 -29t55 -12h37v-96h-299l-239 422h-35v-326h110v-96h-458zM926 506h94q160 0 160 180q0 86 -44.5 125t-138.5 39h-71v-344z" />
<glyph unicode="&#xaf;" horiz-adv-x="831" d="M315 1104l21 127h557l-21 -127h-557z" />
<glyph unicode="&#xb0;" horiz-adv-x="681" d="M88 1120q0 103 72.5 176.5t175.5 73.5q104 0 177 -73.5t73 -176.5t-73 -175.5t-177 -72.5q-103 0 -175.5 72.5t-72.5 175.5zM190 1120q0 -60 43 -102.5t103 -42.5q61 0 104 42.5t43 102.5q0 62 -43 105t-104 43q-60 0 -103 -43.5t-43 -104.5z" />
<glyph unicode="&#xb1;" horiz-adv-x="1126" d="M78 0v168h971v-168h-971zM78 532v168h401v320h168v-320h402v-168h-402v-319h-168v319h-401z" />
<glyph unicode="&#xb2;" horiz-adv-x="747" d="M127 721l12 70l242 176q103 75 135 124.5t37 120.5q3 36 -12 55t-43 19q-43 0 -77 -23.5t-108 -95.5l-86 74q93 90 155.5 121t154.5 31q87 0 150 -47.5t63 -122.5q0 -35 -11 -68.5t-34 -64.5t-45.5 -56t-59 -53t-60 -45t-64 -44t-56.5 -38h344l-70 -133h-567z" />
<glyph unicode="&#xb3;" horiz-adv-x="673" d="M-18 416l73 112q94 -59 156 -59q71 0 145 84.5t74 198.5q0 68 -31.5 106.5t-89.5 38.5h-76l21 78q103 54 144 107.5t46 129.5q1 29 -18.5 48.5t-36.5 19.5q-34 0 -63.5 -13.5t-79.5 -58.5l-53 74q111 111 260 111q82 0 138 -42t56 -116q0 -128 -172 -231q68 -15 111 -70 t43 -135q0 -111 -57 -212.5t-164.5 -168t-239.5 -66.5q-86 0 -186 64z" />
<glyph unicode="&#xb4;" horiz-adv-x="681" d="M125 1083l244 330h225l-326 -330h-143z" />
<glyph unicode="&#xb5;" />
<glyph unicode="&#xb6;" horiz-adv-x="1318" d="M170 -397l180 178q8 -13 23.5 -38t22.5 -35t18.5 -25.5t22 -25.5t22.5 -19q46 -33 121 -23l135 860h-103q-82 0 -160 33.5t-137 92t-95 143.5t-36 182q0 169 89.5 304.5t231.5 207t304 71.5h340l31 189h127l-39 -189h108q75 0 158 -49l-70 -131q-4 4 -13.5 13t-13 12 t-11.5 10t-13.5 10t-13.5 6.5t-16.5 5.5t-18.5 3l-109 10l-221 -1438q-73 -485 -534 -485q-240 0 -330 127zM698 -362q89 44 140 131.5t75 232.5l224 1399h-148z" />
<glyph unicode="&#xb7;" horiz-adv-x="681" d="M276 492q0 57 40.5 97t97.5 40t97 -40t40 -97t-40 -97.5t-97 -40.5t-97.5 40.5t-40.5 97.5z" />
<glyph unicode="&#xb8;" horiz-adv-x="729" d="M49 -455l78 113q33 -61 98 -61q39 0 73 33t40 77q9 56 -42 82.5t-112 26.5l172 161h111l-109 -108q72 -2 113.5 -43t32.5 -102q-15 -91 -96.5 -148t-198.5 -57q-44 0 -72.5 4.5t-87.5 21.5z" />
<glyph unicode="&#xb9;" horiz-adv-x="643" d="M174 711l12 88h123l68 418l-137 -58l-39 88l313 125h88l-96 -573h119l-13 -88h-438z" />
<glyph unicode="&#xba;" horiz-adv-x="776" d="M152 973q2 74 29 147.5t73.5 134.5t119 99.5t156.5 38.5q116 0 176 -76t58 -191q-1 -74 -27.5 -147t-73.5 -133.5t-121.5 -98.5t-162.5 -38q-115 0 -172.5 75t-54.5 189zM342 973q0 -71 19 -117.5t53 -46.5q49 0 86 51t54 121.5t17 144.5q-2 74 -19.5 121t-51.5 47 q-49 0 -86.5 -52t-54.5 -123.5t-17 -145.5z" />
<glyph unicode="&#xbb;" horiz-adv-x="1024" d="M31 63l12 87l291 309l-193 309l13 84l499 -393zM471 63l12 87l293 309l-194 309l12 84l500 -393z" />
<glyph unicode="&#xbc;" horiz-adv-x="1740" d="M174 -94l1180 1501h194l-1179 -1501h-195zM174 711l12 88h123l68 418l-137 -58l-39 88l313 125h88l-96 -573h119l-13 -88h-438zM815 2l6 47l565 643h115l-92 -565h172l-78 -125h-110l-50 -338h-172l52 338h-408zM1049 127h182l51 274z" />
<glyph unicode="&#xbd;" horiz-adv-x="1740" d="M174 -94l1180 1501h194l-1179 -1501h-195zM174 711l12 88h123l68 418l-137 -58l-39 88l313 125h88l-96 -573h119l-13 -88h-438zM991 0l10 72l242 176q103 74 136 124.5t36 121.5q6 71 -55 71q-43 0 -77 -23t-107 -96l-84 76q92 89 154 119.5t153 30.5q87 0 150 -47.5 t63 -122.5q0 -35 -11 -68.5t-34 -64.5t-45.5 -56t-59 -53t-60 -45t-64 -44t-56.5 -38h344l-70 -133h-565z" />
<glyph unicode="&#xbe;" horiz-adv-x="1740" d="M-18 416l73 112q94 -59 156 -59q71 0 145 84.5t74 198.5q0 68 -31.5 106.5t-89.5 38.5h-76l21 78q103 54 144 107.5t46 129.5q1 29 -18.5 48.5t-36.5 19.5q-34 0 -63.5 -13.5t-79.5 -58.5l-53 74q111 111 260 111q82 0 138 -42t56 -116q0 -128 -172 -231q68 -15 111 -70 t43 -135q0 -111 -57 -212.5t-164.5 -168t-239.5 -66.5q-86 0 -186 64zM236 -94l1179 1501h195l-1180 -1501h-194zM815 2l6 47l565 643h115l-92 -565h172l-78 -125h-110l-50 -338h-172l52 338h-408zM1049 127h182l51 274z" />
<glyph unicode="&#xbf;" horiz-adv-x="980" d="M66 -225q0 147 102 274t375 318q-44 59 -61.5 78.5t-61.5 54.5l190 149q50 -58 84.5 -107t51 -78t51.5 -95q-21 -13 -69.5 -43.5t-81.5 -51.5t-83 -56t-84.5 -63.5t-73.5 -67.5t-62.5 -75t-39.5 -78t-16 -84q0 -101 39 -152.5t143 -51.5q66 0 100.5 18t108.5 84 q-30 36 -51.5 54.5t-73.5 54.5l166 125q76 -70 100.5 -104t24.5 -68q0 -28 -27.5 -72t-68.5 -84q-92 -84 -177.5 -123t-181.5 -39q-135 0 -229 79t-94 204zM508 872q0 50 43 91t98 41q43 0 79 -39t36 -88t-43 -89t-96 -40q-44 0 -80.5 38.5t-36.5 85.5z" />
<glyph unicode="&#xc0;" horiz-adv-x="1376" d="M4 0l14 86h127l736 1309h114l301 -1309h86l-14 -86h-479l14 86h144l-76 332h-508l-184 -332h163l-14 -86h-424zM532 543h412l-115 528zM643 1765h225l191 -329h-146z" />
<glyph unicode="&#xc1;" horiz-adv-x="1376" d="M4 0l14 86h127l736 1309h114l301 -1309h86l-14 -86h-479l14 86h144l-76 332h-508l-184 -332h163l-14 -86h-424zM532 543h412l-115 528zM698 1409l297 330h224l-377 -330h-144z" />
<glyph unicode="&#xc2;" horiz-adv-x="1376" d="M4 0l14 86h127l736 1309h114l301 -1309h86l-14 -86h-479l14 86h144l-76 332h-508l-184 -332h163l-14 -86h-424zM532 543h412l-115 528zM637 1436l283 338h122l168 -338h-106l-148 180l-202 -180h-117z" />
<glyph unicode="&#xc3;" horiz-adv-x="1376" d="M4 0l14 86h127l736 1309h114l301 -1309h86l-14 -86h-479l14 86h144l-76 332h-508l-184 -332h163l-14 -86h-424zM532 543h412l-115 528zM541 1579q86 86 151 123t131 37q65 0 95 -19l69 -49q49 -35 121 -35q50 0 77 13t87 65l49 -63q-87 -89 -153 -123.5t-146 -34.5 q-91 0 -154 47q-48 36 -64 43.5t-46 7.5q-78 0 -168 -78z" />
<glyph unicode="&#xc4;" horiz-adv-x="1376" d="M4 0l14 86h127l736 1309h114l301 -1309h86l-14 -86h-479l14 86h144l-76 332h-508l-184 -332h163l-14 -86h-424zM532 543h412l-115 528zM635 1538q0 50 35 85.5t86 35.5q49 0 83.5 -35.5t34.5 -85.5q0 -51 -34 -86t-84 -35q-51 0 -86 35t-35 86zM993 1538q0 50 35 85.5 t86 35.5q49 0 84 -35.5t35 -85.5q0 -51 -34.5 -86t-84.5 -35q-51 0 -86 35t-35 86z" />
<glyph unicode="&#xc5;" horiz-adv-x="1376" d="M4 0l14 86h127l736 1309h114l301 -1309h86l-14 -86h-479l14 86h144l-76 332h-508l-184 -332h163l-14 -86h-424zM532 543h412l-115 528zM770 1642q0 75 53 128t127 53q75 0 127.5 -53t52.5 -128q0 -74 -52.5 -127t-127.5 -53q-74 0 -127 53t-53 127zM856 1642 q0 -38 28 -66t66 -28q39 0 66.5 27.5t27.5 66.5q0 40 -27.5 68.5t-66.5 28.5q-38 0 -66 -28.5t-28 -68.5z" />
<glyph unicode="&#xc6;" horiz-adv-x="1783" d="M2 0l12 86h121l811 1176h-164l15 90h950l8 59h113l-51 -328h-113l25 148h-418l-78 -488h323l23 142h111l-64 -404h-110l22 142h-324l-79 -502h458l27 147h109l-43 -268h-967l12 86h154l53 326h-446l-226 -326h158l-12 -86h-410zM578 539h378l115 716z" />
<glyph unicode="&#xc7;" horiz-adv-x="1366" d="M199 672q19 206 128.5 367.5t282.5 249t379 87.5q97 0 161 -14.5t150 -54.5l15 86h112l-57 -367h-113l21 131q-121 105 -254 105q-214 0 -372 -162.5t-183 -415.5q-16 -164 33.5 -300t148.5 -213t226 -77q76 0 141 18.5t145 63.5l25 156h115l-43 -273q-224 -76 -381 -84 l-109 -122q69 -7 103.5 -49t25.5 -107q-14 -82 -99.5 -141.5t-189.5 -59.5q-72 0 -166 39l84 105q28 -34 46.5 -46t43.5 -12q43 0 77 31t42 76q6 35 -3.5 59t-32.5 36t-48 16.5t-59 4.5l156 170q-268 22 -422.5 219.5t-128.5 477.5z" />
<glyph unicode="&#xc8;" horiz-adv-x="1189" d="M115 0l12 86h156l186 1180h-156l15 86h823l8 57h111l-51 -326h-109l25 148h-426l-78 -483h327l23 139l111 2l-64 -404l-110 -2l22 144h-328l-80 -506h465l25 151h111l-43 -272h-975zM516 1726h225l191 -329h-146z" />
<glyph unicode="&#xc9;" horiz-adv-x="1189" d="M115 0l12 86h156l186 1180h-156l15 86h823l8 57h111l-51 -326h-109l25 148h-426l-78 -483h327l23 139l111 2l-64 -404l-110 -2l22 144h-328l-80 -506h465l25 151h111l-43 -272h-975zM604 1405l297 330h225l-378 -330h-144z" />
<glyph unicode="&#xca;" horiz-adv-x="1189" d="M115 0l12 86h156l186 1180h-156l15 86h823l8 57h111l-51 -326h-109l25 148h-426l-78 -483h327l23 139l111 2l-64 -404l-110 -2l22 144h-328l-80 -506h465l25 151h111l-43 -272h-975zM532 1485l285 338h123l166 -338h-107l-145 180l-205 -180h-117z" />
<glyph unicode="&#xcb;" horiz-adv-x="1189" d="M115 0l12 86h156l186 1180h-156l15 86h823l8 57h111l-51 -326h-109l25 148h-426l-78 -483h327l23 139l111 2l-64 -404l-110 -2l22 144h-328l-80 -506h465l25 151h111l-43 -272h-975zM520 1589q0 51 35.5 86t85.5 35t85.5 -35t35.5 -86q0 -49 -35.5 -84t-85.5 -35 t-85.5 35t-35.5 84zM895 1589q0 51 35.5 86t85.5 35q51 0 86 -35t35 -86q0 -50 -35 -84.5t-86 -34.5q-50 0 -85.5 35t-35.5 84z" />
<glyph unicode="&#xcc;" horiz-adv-x="794" d="M111 0l12 86h156l188 1180h-156l13 86h553l-13 -86h-153l-189 -1180h154l-12 -86h-553zM319 1735h226l190 -330h-145z" />
<glyph unicode="&#xcd;" horiz-adv-x="794" d="M111 0l12 86h156l188 1180h-156l13 86h553l-13 -86h-153l-189 -1180h154l-12 -86h-553zM489 1405l297 330h226l-379 -330h-144z" />
<glyph unicode="&#xce;" horiz-adv-x="794" d="M111 0l12 86h156l188 1180h-156l13 86h553l-13 -86h-153l-189 -1180h154l-12 -86h-553zM328 1466l282 338h125l166 -338h-106l-148 181l-203 -181h-116z" />
<glyph unicode="&#xcf;" horiz-adv-x="794" d="M111 0l12 86h156l188 1180h-156l13 86h553l-13 -86h-153l-189 -1180h154l-12 -86h-553zM334 1546q0 50 35 85.5t86 35.5q49 0 83.5 -35.5t34.5 -85.5q0 -51 -34 -86t-84 -35q-51 0 -86 35t-35 86zM692 1546q0 50 35 85.5t86 35.5q49 0 85 -35.5t36 -85.5q0 -51 -35.5 -86 t-85.5 -35q-51 0 -86 35t-35 86z" />
<glyph unicode="&#xd0;" horiz-adv-x="1515" d="M82 672l16 102h299l78 492h-156l13 86h618q190 0 328.5 -89t199.5 -243t33 -342q-24 -162 -94 -291.5t-172.5 -213.5t-232.5 -128.5t-277 -44.5h-616l12 86h156l94 586h-299zM535 113h165q225 0 363.5 145t179.5 420q24 152 -8 278t-122.5 203.5t-225.5 77.5h-174 l-72 -463h297l-16 -102h-297z" />
<glyph unicode="&#xd1;" horiz-adv-x="1509" d="M109 0l12 86h170l170 1075l-49 105h-148l15 86h387l530 -969l139 883h-161l14 86h463l-15 -86h-172l-202 -1289h-123l-572 1033l-145 -924h162l-13 -86h-462zM592 1522q85 86 152.5 123.5t134.5 37.5q63 0 92 -18l69 -49q49 -35 121 -35q51 0 77 12.5t85 63.5l51 -64 q-87 -87 -153 -121t-148 -34q-88 0 -151 47q-47 35 -64.5 43t-48.5 8q-40 0 -77.5 -17.5t-90.5 -60.5z" />
<glyph unicode="&#xd2;" horiz-adv-x="1540" d="M209 676q20 156 90 288.5t172.5 222t232.5 139.5t271 50q185 0 320.5 -93t195 -253t31.5 -354q-24 -163 -94.5 -296.5t-173 -222t-231 -136.5t-269.5 -48q-185 0 -319 93.5t-192.5 254t-33.5 355.5zM477 676q-18 -155 13.5 -290.5t106.5 -217.5t175 -82q175 0 307 157 t174 433q23 152 -9 288t-109.5 218t-178.5 82q-172 0 -310.5 -165t-168.5 -423zM584 1733h225l190 -330h-143z" />
<glyph unicode="&#xd3;" horiz-adv-x="1540" d="M209 676q20 156 90 288.5t172.5 222t232.5 139.5t271 50q185 0 320.5 -93t195 -253t31.5 -354q-24 -163 -94.5 -296.5t-173 -222t-231 -136.5t-269.5 -48q-185 0 -319 93.5t-192.5 254t-33.5 355.5zM477 676q-18 -155 13.5 -290.5t106.5 -217.5t175 -82q175 0 307 157 t174 433q23 152 -9 288t-109.5 218t-178.5 82q-172 0 -310.5 -165t-168.5 -423zM768 1407l297 330h225l-379 -330h-143z" />
<glyph unicode="&#xd4;" horiz-adv-x="1540" d="M209 676q20 156 90 288.5t172.5 222t232.5 139.5t271 50q185 0 320.5 -93t195 -253t31.5 -354q-24 -163 -94.5 -296.5t-173 -222t-231 -136.5t-269.5 -48q-185 0 -319 93.5t-192.5 254t-33.5 355.5zM477 676q-18 -155 13.5 -290.5t106.5 -217.5t175 -82q175 0 307 157 t174 433q23 152 -9 288t-109.5 218t-178.5 82q-172 0 -310.5 -165t-168.5 -423zM690 1468l285 338h123l166 -338h-107l-145 181l-205 -181h-117z" />
<glyph unicode="&#xd5;" horiz-adv-x="1540" d="M209 676q20 156 90 288.5t172.5 222t232.5 139.5t271 50q185 0 320.5 -93t195 -253t31.5 -354q-24 -163 -94.5 -296.5t-173 -222t-231 -136.5t-269.5 -48q-185 0 -319 93.5t-192.5 254t-33.5 355.5zM477 676q-18 -155 13.5 -290.5t106.5 -217.5t175 -82q175 0 307 157 t174 433q23 152 -9 288t-109.5 218t-178.5 82q-172 0 -310.5 -165t-168.5 -423zM586 1540q85 87 152 124.5t134 37.5q63 0 93 -19l69 -49q49 -35 121 -35q51 0 77.5 12.5t86.5 63.5l49 -63q-87 -87 -153 -121.5t-146 -34.5q-91 0 -154 47q-47 35 -64 43t-46 8 q-42 0 -79.5 -17.5t-88.5 -59.5z" />
<glyph unicode="&#xd6;" horiz-adv-x="1540" d="M209 676q20 156 90 288.5t172.5 222t232.5 139.5t271 50q185 0 320.5 -93t195 -253t31.5 -354q-24 -163 -94.5 -296.5t-173 -222t-231 -136.5t-269.5 -48q-185 0 -319 93.5t-192.5 254t-33.5 355.5zM477 676q-18 -155 13.5 -290.5t106.5 -217.5t175 -82q175 0 307 157 t174 433q23 152 -9 288t-109.5 218t-178.5 82q-172 0 -310.5 -165t-168.5 -423zM586 1540q0 51 35.5 86t85.5 35q51 0 85.5 -35t34.5 -86q0 -50 -34.5 -84.5t-85.5 -34.5q-50 0 -85.5 35t-35.5 84zM1167 1540q0 51 35 86t86 35q50 0 84.5 -35t34.5 -86q0 -50 -34.5 -84.5 t-84.5 -34.5q-51 0 -86 34.5t-35 84.5z" />
<glyph unicode="&#xd7;" horiz-adv-x="1126" d="M63 82l381 381l-381 381l119 119l381 -381l381 381l119 -119l-381 -381l381 -381l-119 -119l-381 381l-381 -381z" />
<glyph unicode="&#xd8;" horiz-adv-x="1533" d="M45 -49l258 252q-131 197 -94 473q20 156 90 288.5t172.5 222t232.5 139.5t271 50q234 0 385 -145l235 229l66 -67l-240 -234q69 -95 95.5 -219.5t5.5 -263.5q-24 -163 -94.5 -296.5t-173 -222t-231 -136.5t-269.5 -48q-239 0 -394 158l-251 -246zM477 676 q-17 -149 15 -291l712 694q-42 87 -106 136t-142 49q-172 0 -310.5 -165t-168.5 -423zM522 287q41 -94 105 -147.5t145 -53.5q175 0 307 157t174 433q24 169 -14 307z" />
<glyph unicode="&#xd9;" horiz-adv-x="1597" d="M322 1266l12 86h553l-13 -86h-153l-121 -764q-16 -84 -9 -156.5t32.5 -126t83 -83.5t141.5 -30q205 0 312.5 100.5t139.5 295.5l119 762h-170l15 88h475l-13 -86h-172l-122 -770q-83 -523 -633 -523q-226 0 -356 128.5t-97 336.5l131 828h-155zM694 1726h226l188 -329 h-143z" />
<glyph unicode="&#xda;" horiz-adv-x="1597" d="M322 1266l12 86h553l-13 -86h-153l-121 -764q-16 -84 -9 -156.5t32.5 -126t83 -83.5t141.5 -30q205 0 312.5 100.5t139.5 295.5l119 762h-170l15 88h475l-13 -86h-172l-122 -770q-83 -523 -633 -523q-226 0 -356 128.5t-97 336.5l131 828h-155zM883 1393l297 329h225 l-379 -329h-143z" />
<glyph unicode="&#xdb;" horiz-adv-x="1597" d="M322 1266l12 86h553l-13 -86h-153l-121 -764q-16 -84 -9 -156.5t32.5 -126t83 -83.5t141.5 -30q205 0 312.5 100.5t139.5 295.5l119 762h-170l15 88h475l-13 -86h-172l-122 -770q-83 -523 -633 -523q-226 0 -356 128.5t-97 336.5l131 828h-155zM797 1489l284 338h123 l166 -338h-106l-146 180l-205 -180h-116z" />
<glyph unicode="&#xdc;" horiz-adv-x="1597" d="M322 1266l12 86h553l-13 -86h-153l-121 -764q-16 -84 -9 -156.5t32.5 -126t83 -83.5t141.5 -30q205 0 312.5 100.5t139.5 295.5l119 762h-170l15 88h475l-13 -86h-172l-122 -770q-83 -523 -633 -523q-226 0 -356 128.5t-97 336.5l131 828h-155zM690 1542q0 51 35.5 86 t85.5 35t85.5 -35t35.5 -86q0 -49 -35.5 -84t-85.5 -35t-85.5 35t-35.5 84zM1227 1542q0 51 35 86t86 35q50 0 84 -35t34 -86q0 -50 -34.5 -84.5t-83.5 -34.5q-51 0 -86 34.5t-35 84.5z" />
<glyph unicode="&#xdd;" horiz-adv-x="1253" d="M201 1266l12 86h553l-12 -86h-152l219 -449l344 449h-174l13 86h477l-13 -86h-147l-432 -561l-98 -619h155l-12 -86h-553l12 86h154l90 565l-307 615h-129zM797 1405l297 330h225l-379 -330h-143z" />
<glyph unicode="&#xde;" horiz-adv-x="1228" d="M119 0l12 86h156l184 1180h-156l13 86h401l-37 -258h178q128 0 214.5 -54.5t120.5 -141t24 -193.5q-18 -183 -148 -295.5t-313 -112.5q-48 0 -109 12l17 101q29 -7 53 -7q88 0 156 68.5t90 196.5q24 138 -24 224.5t-156 86.5h-123l-142 -893h175l-13 -86h-573z" />
<glyph unicode="&#xdf;" horiz-adv-x="1126" d="M-381 -430l135 164q25 -28 47.5 -48.5t49 -34.5t40 -20.5t47 -18.5t42.5 -15q35 39 51.5 69.5t32.5 95.5t38 199l199 1206q25 153 139 252t262 99q127 0 221.5 -82t94.5 -191q0 -127 -96 -231q-36 -39 -59.5 -67t-57 -74.5t-51 -92t-17.5 -86.5q0 -36 24 -71t59.5 -61.5 t77.5 -60t77.5 -65.5t59.5 -79.5t24 -100.5q0 -75 -52.5 -138.5t-134.5 -98.5t-172 -35q-168 0 -309 94l117 153q83 -95 108 -115q40 -32 91 -32q67 0 106 32.5t39 94.5q0 45 -24.5 85.5t-61.5 69.5t-80 62t-80 63t-61.5 73t-24.5 91q0 70 33 131t79.5 106t93 87t79.5 92.5 t33 104.5q0 98 -43 155.5t-117 57.5q-36 0 -60 -8.5t-41.5 -25t-30 -51.5t-21.5 -75t-21 -109l-201 -1233q-31 -183 -155 -297t-289 -114q-65 0 -121 20.5t-119 73.5z" />
<glyph unicode="&#xe0;" horiz-adv-x="1024" d="M68 252q0 92 20 188t63 188t102.5 164t146 116t186.5 44q106 0 170 -49l16 35h178l-100 -576q-16 -102 -14 -143q24 26 38.5 45t38 52.5t41.5 58.5l68 -51q-101 -155 -197 -248q-74 -72 -151 -94q-22 33 -31 67t-16 90q-5 47 4 105l8 57q-31 -60 -69 -113.5t-89.5 -104 t-116.5 -80.5t-135 -30q-72 0 -116.5 74.5t-44.5 204.5zM299 309q-1 -74 18 -123t48 -49q22 0 52 21t52 45q97 111 144 226t110 349q-21 37 -61.5 56.5t-86.5 19.5q-114 0 -193.5 -153.5t-82.5 -391.5zM387 1413h223l191 -330h-144z" />
<glyph unicode="&#xe1;" horiz-adv-x="1024" d="M68 252q0 92 20 188t63 188t102.5 164t146 116t186.5 44q106 0 170 -49l16 35h178l-100 -576q-16 -102 -14 -143q24 26 38.5 45t38 52.5t41.5 58.5l68 -51q-101 -155 -197 -248q-74 -72 -151 -94q-22 33 -31 67t-16 90q-5 47 4 105l8 57q-31 -60 -69 -113.5t-89.5 -104 t-116.5 -80.5t-135 -30q-72 0 -116.5 74.5t-44.5 204.5zM299 309q-1 -74 18 -123t48 -49q22 0 52 21t52 45q97 111 144 226t110 349q-21 37 -61.5 56.5t-86.5 19.5q-114 0 -193.5 -153.5t-82.5 -391.5zM524 1083l297 330h223l-376 -330h-144z" />
<glyph unicode="&#xe2;" horiz-adv-x="1024" d="M68 252q0 92 20 188t63 188t102.5 164t146 116t186.5 44q106 0 170 -49l16 35h178l-100 -576q-16 -102 -14 -143q24 26 38.5 45t38 52.5t41.5 58.5l68 -51q-101 -155 -197 -248q-74 -72 -151 -94q-22 33 -31 67t-16 90q-5 47 4 105l8 57q-31 -60 -69 -113.5t-89.5 -104 t-116.5 -80.5t-135 -30q-72 0 -116.5 74.5t-44.5 204.5zM299 309q-1 -74 18 -123t48 -49q22 0 52 21t52 45q97 111 144 226t110 349q-21 37 -61.5 56.5t-86.5 19.5q-114 0 -193.5 -153.5t-82.5 -391.5zM381 1083l283 338h122l168 -338h-106l-148 181l-202 -181h-117z" />
<glyph unicode="&#xe3;" horiz-adv-x="1024" d="M68 252q0 92 20 188t63 188t102.5 164t146 116t186.5 44q106 0 170 -49l16 35h178l-100 -576q-16 -102 -14 -143q24 26 38.5 45t38 52.5t41.5 58.5l68 -51q-101 -155 -197 -248q-74 -72 -151 -94q-22 33 -31 67t-16 90q-5 47 4 105l8 57q-31 -60 -69 -113.5t-89.5 -104 t-116.5 -80.5t-135 -30q-72 0 -116.5 74.5t-44.5 204.5zM283 1141q86 87 152 124.5t134 37.5q63 0 93 -19l69 -49q49 -35 121 -35q50 0 77 12.5t87 63.5l49 -64q-88 -88 -152.5 -121.5t-146.5 -33.5q-91 0 -154 47q-48 36 -64 43.5t-46 7.5q-41 0 -79 -17.5t-89 -60.5z M299 309q-1 -74 18 -123t48 -49q22 0 52 21t52 45q97 111 144 226t110 349q-21 37 -61.5 56.5t-86.5 19.5q-114 0 -193.5 -153.5t-82.5 -391.5z" />
<glyph unicode="&#xe4;" horiz-adv-x="1024" d="M68 252q0 92 20 188t63 188t102.5 164t146 116t186.5 44q106 0 170 -49l16 35h178l-100 -576q-16 -102 -14 -143q24 26 38.5 45t38 52.5t41.5 58.5l68 -51q-101 -155 -197 -248q-74 -72 -151 -94q-22 33 -31 67t-16 90q-5 47 4 105l8 57q-31 -60 -69 -113.5t-89.5 -104 t-116.5 -80.5t-135 -30q-72 0 -116.5 74.5t-44.5 204.5zM299 309q-1 -74 18 -123t48 -49q22 0 52 21t52 45q97 111 144 226t110 349q-21 37 -61.5 56.5t-86.5 19.5q-114 0 -193.5 -153.5t-82.5 -391.5zM401 1174q0 51 35.5 85.5t85.5 34.5q51 0 86 -34.5t35 -85.5 q0 -50 -35 -85.5t-86 -35.5q-50 0 -85.5 35.5t-35.5 85.5zM760 1174q0 51 35.5 85.5t85.5 34.5q51 0 85.5 -34.5t34.5 -85.5q0 -50 -34.5 -85.5t-85.5 -35.5q-49 0 -85 35.5t-36 85.5z" />
<glyph unicode="&#xe5;" horiz-adv-x="1024" d="M68 252q0 92 20 188t63 188t102.5 164t146 116t186.5 44q106 0 170 -49l16 35h178l-100 -576q-16 -102 -14 -143q24 26 38.5 45t38 52.5t41.5 58.5l68 -51q-101 -155 -197 -248q-74 -72 -151 -94q-22 33 -31 67t-16 90q-5 47 4 105l8 57q-31 -60 -69 -113.5t-89.5 -104 t-116.5 -80.5t-135 -30q-72 0 -116.5 74.5t-44.5 204.5zM299 309q-1 -74 18 -123t48 -49q22 0 52 21t52 45q97 111 144 226t110 349q-21 37 -61.5 56.5t-86.5 19.5q-114 0 -193.5 -153.5t-82.5 -391.5zM512 1202q0 75 53 127.5t127 52.5q75 0 127.5 -52.5t52.5 -127.5 q0 -74 -52.5 -127t-127.5 -53q-74 0 -127 53t-53 127zM598 1202q0 -38 28 -66t66 -28q40 0 68 28t28 66q0 40 -28 67t-68 27q-39 0 -66.5 -27.5t-27.5 -66.5z" />
<glyph unicode="&#xe6;" horiz-adv-x="1345" d="M68 252q0 92 20 188t63 188t102.5 164t146 116t186.5 44q106 0 170 -49l16 45h168l-8 -43q77 47 160 47q125 0 188 -57.5t63 -155.5v-53l-491 -268l-6 -103q-6 -103 15 -150t59 -44q78 6 167.5 70t174.5 182l67 -60q-108 -150 -240.5 -238.5t-246.5 -88.5q-99 0 -156 14 q-41 56 -56.5 115t-15.5 141q-69 -119 -167.5 -201t-217.5 -82q-72 0 -116.5 74.5t-44.5 204.5zM299 309q-1 -74 18 -123t48 -49q22 0 52 21t52 45q97 111 144 226t110 349q-21 37 -61.5 56.5t-86.5 19.5q-114 0 -193.5 -153.5t-82.5 -391.5zM819 72q-2 -9 8 0q17 14 17 20 q-5 -4 -19 -16zM866 520l256 150v112q0 35 -16.5 55.5t-42.5 18.5q-15 -1 -27.5 -4t-18 -5t-25 -11.5t-29.5 -14.5q-26 -42 -56 -137t-41 -164z" />
<glyph unicode="&#xe7;" horiz-adv-x="772" d="M31 -455l75 113q38 -61 101 -61q38 0 72 33t40 77q9 56 -41.5 82.5t-111.5 26.5l182 184q-73 -16 -178 -16q-54 71 -75 132.5t-21 151.5q0 184 66 342t181 251t250 93q146 0 248 -94l-174 -145q-8 13 -18 37.5t-13 27.5q-21 37 -41.5 51.5t-66.5 14.5q-22 0 -96 -39 q-40 -76 -72 -197.5t-35 -214.5q-4 -142 17.5 -204t72.5 -62q50 0 140.5 62.5t173.5 175.5l65 -54q-86 -108 -137 -158.5t-113 -86.5q-31 -19 -55 -29l-127 -170q72 -1 113 -42t32 -103q-15 -91 -96.5 -148t-198.5 -57q-44 0 -72 4.5t-87 21.5z" />
<glyph unicode="&#xe8;" horiz-adv-x="778" d="M63 266q0 134 41.5 261.5t108 220t153.5 148.5t175 56q125 0 188.5 -57.5t63.5 -155.5v-53l-492 -268l-6 -103q-6 -103 15 -150t59 -44q78 6 167.5 70t174.5 182l67 -60q-108 -150 -240.5 -238.5t-246.5 -88.5q-78 0 -135 14q-47 64 -70 125.5t-23 140.5zM233 1413h226 l190 -330h-143zM315 520l256 150v112q0 35 -16.5 55.5t-42.5 18.5q-15 -1 -27.5 -4t-18 -5t-25 -11.5t-29.5 -14.5q-26 -42 -56 -137t-41 -164z" />
<glyph unicode="&#xe9;" horiz-adv-x="778" d="M63 266q0 134 41.5 261.5t108 220t153.5 148.5t175 56q125 0 188.5 -57.5t63.5 -155.5v-53l-492 -268l-6 -103q-6 -103 15 -150t59 -44q78 6 167.5 70t174.5 182l67 -60q-108 -150 -240.5 -238.5t-246.5 -88.5q-78 0 -135 14q-47 64 -70 125.5t-23 140.5zM315 520 l256 150v112q0 35 -16.5 55.5t-42.5 18.5q-15 -1 -27.5 -4t-18 -5t-25 -11.5t-29.5 -14.5q-26 -42 -56 -137t-41 -164zM463 1083l297 330h223l-377 -330h-143z" />
<glyph unicode="&#xea;" horiz-adv-x="778" d="M63 266q0 134 41.5 261.5t108 220t153.5 148.5t175 56q125 0 188.5 -57.5t63.5 -155.5v-53l-492 -268l-6 -103q-6 -103 15 -150t59 -44q78 6 167.5 70t174.5 182l67 -60q-108 -150 -240.5 -238.5t-246.5 -88.5q-78 0 -135 14q-47 64 -70 125.5t-23 140.5zM285 1083 l282 338h125l166 -338h-106l-148 181l-203 -181h-116zM315 520l256 150v112q0 35 -16.5 55.5t-42.5 18.5q-15 -1 -27.5 -4t-18 -5t-25 -11.5t-29.5 -14.5q-26 -42 -56 -137t-41 -164z" />
<glyph unicode="&#xeb;" horiz-adv-x="778" d="M63 266q0 134 41.5 261.5t108 220t153.5 148.5t175 56q125 0 188.5 -57.5t63.5 -155.5v-53l-492 -268l-6 -103q-6 -103 15 -150t59 -44q78 6 167.5 70t174.5 182l67 -60q-108 -150 -240.5 -238.5t-246.5 -88.5q-78 0 -135 14q-47 64 -70 125.5t-23 140.5zM295 1171 q0 51 35.5 86t85.5 35q51 0 86 -35t35 -86q0 -50 -35 -84t-86 -34q-50 0 -85.5 34.5t-35.5 83.5zM315 520l256 150v112q0 35 -16.5 55.5t-42.5 18.5q-15 -1 -27.5 -4t-18 -5t-25 -11.5t-29.5 -14.5q-26 -42 -56 -137t-41 -164zM653 1171q0 51 35.5 86t85.5 35q51 0 86 -35 t35 -86q0 -50 -35 -84t-86 -34q-50 0 -85.5 34.5t-35.5 83.5z" />
<glyph unicode="&#xec;" horiz-adv-x="575" d="M72 803v49l303 96h94l-125 -762q74 71 92 95q67 86 72 94l63 -51q-86 -123 -138 -182.5t-109 -102.5q-55 -44 -125 -55q-64 72 -64 145q0 49 8 102l88 572h-159zM100 1413h226l190 -330h-145z" />
<glyph unicode="&#xed;" horiz-adv-x="575" d="M72 803v49l303 96h94l-125 -762q74 71 92 95q67 86 72 94l63 -51q-86 -123 -138 -182.5t-109 -102.5q-55 -44 -125 -55q-64 72 -64 145q0 49 8 102l88 572h-159zM264 1083l297 330h223l-376 -330h-144z" />
<glyph unicode="&#xee;" horiz-adv-x="575" d="M72 803v49l303 96h94l-125 -762q74 71 92 95q67 86 72 94l63 -51q-86 -123 -138 -182.5t-109 -102.5q-55 -44 -125 -55q-64 72 -64 145q0 49 8 102l88 572h-159zM82 1083l283 338h122l168 -338h-106l-148 181l-202 -181h-117z" />
<glyph unicode="&#xef;" horiz-adv-x="575" d="M72 803v49l303 96h94l-125 -762q74 71 92 95q67 86 72 94l63 -51q-86 -123 -138 -182.5t-109 -102.5q-55 -44 -125 -55q-64 72 -64 145q0 49 8 102l88 572h-159zM104 1171q0 51 35 86t86 35q50 0 85.5 -35t35.5 -86q0 -49 -35.5 -83.5t-85.5 -34.5q-51 0 -86 34t-35 84z M420 1171q0 51 35 86t86 35q50 0 84 -35t34 -86q0 -49 -34.5 -83.5t-83.5 -34.5q-51 0 -86 34t-35 84z" />
<glyph unicode="&#xf0;" horiz-adv-x="1024" d="M53 408q0 90 35 174t92.5 144.5t135.5 97t161 36.5q33 0 55 -4.5t74 -21.5l-2 -93h-88q-85 0 -146 -85t-67 -216q-6 -160 43.5 -254t112.5 -94q43 0 88.5 32t86 91t67 158t26.5 219q0 160 -13 252t-34 140t-72 124l-258 -135l-37 90l228 121q-88 72 -242 84l20 102 q217 0 365 -110l250 133l39 -90l-211 -113q89 -96 112 -127q72 -96 93 -240q14 -93 14 -231q0 -132 -42 -246.5t-115 -196.5t-177.5 -129t-224.5 -47q-178 0 -273.5 112t-95.5 323z" />
<glyph unicode="&#xf1;" horiz-adv-x="1105" d="M82 803v49l299 96h104l-69 -368q139 199 242.5 283.5t215.5 84.5q43 0 68 -33t25 -90q0 -32 -17 -139l-82 -502q86 80 160 191l68 -51q-98 -135 -142.5 -186.5t-99.5 -92.5q-38 -29 -58.5 -40t-64.5 -21q-74 65 -74 166q0 30 9 79l71 441q15 102 -14 102q-30 0 -105 -82 t-155 -211q-48 -78 -71.5 -146t-35.5 -169l-20 -164h-221l127 803h-160zM254 1141q87 87 154 124.5t133 37.5q62 0 92 -19l69 -49q49 -35 121 -35q51 0 77.5 12.5t86.5 63.5l49 -64q-87 -87 -153 -121t-146 -34q-90 0 -153 47q-47 35 -64.5 43t-46.5 8q-41 0 -79 -17.5 t-89 -60.5z" />
<glyph unicode="&#xf2;" horiz-adv-x="913" d="M41 352q4 124 48.5 236t115 191.5t164 126t192.5 46.5q68 0 124.5 -23t100 -70t66.5 -125t20 -181q-4 -124 -49.5 -233t-118 -184t-166 -118t-192.5 -43q-63 0 -118 22.5t-98.5 67t-67.5 118.5t-21 169zM272 395q-5 -144 27 -229.5t96 -85.5q69 0 124.5 65t86.5 169.5 t35 228.5q5 135 -28 221t-95 86q-67 0 -123 -64.5t-87.5 -167.5t-35.5 -223zM285 1413h225l190 -330h-143z" />
<glyph unicode="&#xf3;" horiz-adv-x="913" d="M41 352q4 124 48.5 236t115 191.5t164 126t192.5 46.5q68 0 124.5 -23t100 -70t66.5 -125t20 -181q-4 -124 -49.5 -233t-118 -184t-166 -118t-192.5 -43q-63 0 -118 22.5t-98.5 67t-67.5 118.5t-21 169zM272 395q-5 -144 27 -229.5t96 -85.5q69 0 124.5 65t86.5 169.5 t35 228.5q5 135 -28 221t-95 86q-67 0 -123 -64.5t-87.5 -167.5t-35.5 -223zM395 1083l297 330h226l-379 -330h-144z" />
<glyph unicode="&#xf4;" horiz-adv-x="913" d="M41 352q4 124 48.5 236t115 191.5t164 126t192.5 46.5q68 0 124.5 -23t100 -70t66.5 -125t20 -181q-4 -124 -49.5 -233t-118 -184t-166 -118t-192.5 -43q-63 0 -118 22.5t-98.5 67t-67.5 118.5t-21 169zM272 395q-5 -144 27 -229.5t96 -85.5q69 0 124.5 65t86.5 169.5 t35 228.5q5 135 -28 221t-95 86q-67 0 -123 -64.5t-87.5 -167.5t-35.5 -223zM307 1083l285 338h123l166 -338h-107l-145 181l-205 -181h-117z" />
<glyph unicode="&#xf5;" horiz-adv-x="913" d="M41 352q4 124 48.5 236t115 191.5t164 126t192.5 46.5q68 0 124.5 -23t100 -70t66.5 -125t20 -181q-4 -124 -49.5 -233t-118 -184t-166 -118t-192.5 -43q-63 0 -118 22.5t-98.5 67t-67.5 118.5t-21 169zM227 1141q85 87 152.5 124.5t134.5 37.5q62 0 92 -19l70 -49 q49 -35 121 -35q51 0 77.5 12.5t86.5 63.5l49 -64q-87 -87 -153 -121t-148 -34q-89 0 -152 47q-47 35 -64.5 43t-46.5 8q-41 0 -78.5 -17.5t-88.5 -60.5zM272 395q-5 -144 27 -229.5t96 -85.5q69 0 124.5 65t86.5 169.5t35 228.5q5 135 -28 221t-95 86q-67 0 -123 -64.5 t-87.5 -167.5t-35.5 -223z" />
<glyph unicode="&#xf6;" horiz-adv-x="913" d="M41 352q4 124 48.5 236t115 191.5t164 126t192.5 46.5q68 0 124.5 -23t100 -70t66.5 -125t20 -181q-4 -124 -49.5 -233t-118 -184t-166 -118t-192.5 -43q-63 0 -118 22.5t-98.5 67t-67.5 118.5t-21 169zM272 395q-5 -144 27 -229.5t96 -85.5q69 0 124.5 65t86.5 169.5 t35 228.5q5 135 -28 221t-95 86q-67 0 -123 -64.5t-87.5 -167.5t-35.5 -223zM276 1171q0 50 35 84.5t86 34.5q49 0 84 -35t35 -84q0 -51 -34.5 -85.5t-84.5 -34.5q-51 0 -86 34.5t-35 85.5zM635 1171q0 50 35 84.5t86 34.5q49 0 83.5 -34.5t34.5 -84.5q0 -51 -34 -85.5 t-84 -34.5q-51 0 -86 34.5t-35 85.5z" />
<glyph unicode="&#xf7;" horiz-adv-x="1126" d="M51 426v117h1024v-117h-1024zM446 98q0 50 35 84.5t86 34.5q49 0 84 -34.5t35 -84.5q0 -51 -34.5 -86t-84.5 -35q-51 0 -86 35t-35 86zM446 874q0 51 35 86t86 35q50 0 84.5 -35t34.5 -86q0 -49 -34.5 -83.5t-84.5 -34.5q-51 0 -86 34t-35 84z" />
<glyph unicode="&#xf8;" horiz-adv-x="907" d="M-8 -68l119 156q-76 98 -70 264q4 124 48.5 236t115 191.5t164 126t192.5 46.5t170 -45l121 160l74 -63l-125 -164q77 -103 71 -287q-4 -124 -49.5 -233t-118 -184t-166 -118t-192.5 -43q-96 0 -164 45l-116 -153zM272 303l344 453q-37 94 -98 94q-67 0 -123 -64.5 t-87.5 -167.5t-35.5 -223q-3 -49 0 -92zM297 172q32 -92 98 -92q69 0 124.5 65t86.5 169.5t35 228.5q3 43 0 84z" />
<glyph unicode="&#xf9;" horiz-adv-x="1116" d="M100 803v49l301 96h103l-111 -690q-9 -60 -5 -82t22 -22q28 0 92.5 68.5t148.5 197.5q39 61 64 124.5t33 103t20 114.5l27 166h219l-117 -744q75 72 107 117l53 76l67 -51q-91 -127 -138 -182.5t-101 -98.5q-65 -51 -166 -61q-36 71 -39 125q-3 69 10 147l15 76 q-111 -167 -220.5 -261t-208.5 -94q-122 0 -122 144q0 16 18 135l86 547h-158zM356 1413h226l190 -330h-143z" />
<glyph unicode="&#xfa;" horiz-adv-x="1116" d="M100 803v49l301 96h103l-111 -690q-9 -60 -5 -82t22 -22q28 0 92.5 68.5t148.5 197.5q39 61 64 124.5t33 103t20 114.5l27 166h219l-117 -744q75 72 107 117l53 76l67 -51q-91 -127 -138 -182.5t-101 -98.5q-65 -51 -166 -61q-36 71 -39 125q-3 69 10 147l15 76 q-111 -167 -220.5 -261t-208.5 -94q-122 0 -122 144q0 16 18 135l86 547h-158zM569 1083l295 330h226l-377 -330h-144z" />
<glyph unicode="&#xfb;" horiz-adv-x="1116" d="M100 803v49l301 96h103l-111 -690q-9 -60 -5 -82t22 -22q28 0 92.5 68.5t148.5 197.5q39 61 64 124.5t33 103t20 114.5l27 166h219l-117 -744q75 72 107 117l53 76l67 -51q-91 -127 -138 -182.5t-101 -98.5q-65 -51 -166 -61q-36 71 -39 125q-3 69 10 147l15 76 q-111 -167 -220.5 -261t-208.5 -94q-122 0 -122 144q0 16 18 135l86 547h-158zM371 1083l282 338h125l166 -338h-106l-148 181l-203 -181h-116z" />
<glyph unicode="&#xfc;" horiz-adv-x="1116" d="M100 803v49l301 96h103l-111 -690q-9 -60 -5 -82t22 -22q28 0 92.5 68.5t148.5 197.5q39 61 64 124.5t33 103t20 114.5l27 166h219l-117 -744q75 72 107 117l53 76l67 -51q-91 -127 -138 -182.5t-101 -98.5q-65 -51 -166 -61q-36 71 -39 125q-3 69 10 147l15 76 q-111 -167 -220.5 -261t-208.5 -94q-122 0 -122 144q0 16 18 135l86 547h-158zM352 1174q0 51 35.5 85.5t85.5 34.5t85.5 -34.5t35.5 -85.5q0 -49 -35.5 -84t-85.5 -35t-85.5 35t-35.5 84zM758 1171q0 51 35.5 86t85.5 35q51 0 85.5 -35t34.5 -86q0 -50 -34.5 -84t-85.5 -34 q-50 0 -85.5 34.5t-35.5 83.5z" />
<glyph unicode="&#xfd;" horiz-adv-x="870" d="M16 803v65l351 82l157 -708l82 116q83 119 107 171.5t24 129.5q0 87 -119 189l189 106q49 -46 70.5 -95.5t21.5 -117.5q0 -37 -9.5 -77.5t-32 -88t-39.5 -82t-53.5 -88.5t-52 -77t-56.5 -78.5t-46 -63.5q-65 -92 -102 -270l-70 -334h156l-16 -80h-521l15 78h149l92 465 q9 41 9 78q0 67 -27 180l-115 500h-164zM393 1083l297 330h223l-376 -330h-144z" />
<glyph unicode="&#xfe;" horiz-adv-x="991" d="M-106 -498l12 78h139l279 1784h-160v51l305 94h98l-141 -911q78 157 192 255.5t226 98.5q71 0 108 -72t37 -206q0 -129 -44.5 -265.5t-117.5 -242.5q-132 -193 -346 -193q-85 0 -145 33l-70 -426h176l-12 -78h-536zM344 147q22 -38 63 -62t85 -24q73 0 134.5 75.5 t96.5 203t35 276.5q0 76 -12 109t-41 33t-75.5 -39t-76.5 -86q-78 -124 -118.5 -213.5t-90.5 -272.5z" />
<glyph unicode="&#xff;" horiz-adv-x="870" d="M16 803v65l351 82l157 -708l82 116q83 119 107 171.5t24 129.5q0 87 -119 189l189 106q49 -46 70.5 -95.5t21.5 -117.5q0 -37 -9.5 -77.5t-32 -88t-39.5 -82t-53.5 -88.5t-52 -77t-56.5 -78.5t-46 -63.5q-65 -92 -102 -270l-70 -334h156l-16 -80h-521l15 78h149l92 465 q9 41 9 78q0 67 -27 180l-115 500h-164zM233 1171q0 51 34.5 86t84.5 35q51 0 86 -35t35 -86q0 -50 -35 -84t-86 -34q-50 0 -84.5 34.5t-34.5 83.5zM621 1171q0 51 34.5 86t85.5 35q50 0 84.5 -35t34.5 -86q0 -49 -34.5 -83.5t-84.5 -34.5q-51 0 -85.5 34t-34.5 84z" />
<glyph unicode="&#x152;" horiz-adv-x="1896" d="M164 676q29 187 146 348t288 255.5t352 94.5q30 0 103 -6q160 -16 223 -16h610l8 53h111l-51 -328h-111l23 148h-428l-74 -477h330l20 139h117l-64 -406h-116l22 146h-330l-79 -506h448l25 155h114l-43 -276h-745q-98 0 -219 -16q-94 -11 -123 -11q-181 0 -320 94.5 t-203 256.5t-34 352zM453 670q-24 -157 9 -290.5t113.5 -211.5t190.5 -78q129 0 185 37.5t71 132.5l135 852q11 69 -36 106t-146 37t-173.5 -36.5t-150.5 -122.5q-159 -181 -198 -426z" />
<glyph unicode="&#x153;" horiz-adv-x="1363" d="M41 352q4 124 48.5 236t115 191.5t164 126t192.5 46.5q83 0 154 -45.5t94 -115.5q56 70 136 115.5t151 45.5q125 0 188.5 -57.5t63.5 -155.5v-53l-492 -268l-6 -103q-6 -103 15 -150t59 -44q78 6 167.5 70t174.5 182l67 -60q-108 -150 -240.5 -238.5t-246.5 -88.5 q-78 0 -135 14q-35 47 -45 121q-56 -62 -147 -104t-173 -42q-63 0 -118 22.5t-98.5 67t-67.5 118.5t-21 169zM272 395q-5 -144 27 -229.5t96 -85.5q69 0 124.5 65t86.5 169.5t35 228.5q5 135 -28 221t-95 86q-67 0 -123 -64.5t-87.5 -167.5t-35.5 -223zM870 520l256 150v112 q0 35 -16.5 55.5t-42.5 18.5q-15 -1 -27.5 -4t-18 -5t-25 -11.5t-29.5 -14.5q-26 -42 -56 -137t-41 -164z" />
<glyph unicode="&#x178;" horiz-adv-x="1253" d="M201 1266l12 86h553l-12 -86h-152l219 -449l344 449h-174l13 86h477l-13 -86h-147l-432 -561l-98 -619h155l-12 -86h-553l12 86h154l90 565l-307 615h-129zM537 1538q0 51 34 86t84 35q51 0 86 -35t35 -86q0 -50 -35 -84.5t-86 -34.5q-49 0 -83.5 34.5t-34.5 84.5z M1001 1542q0 51 35 86t86 35q50 0 84.5 -35t34.5 -86q0 -50 -34.5 -84.5t-84.5 -34.5q-51 0 -86 34.5t-35 84.5z" />
<glyph unicode="&#x2c6;" horiz-adv-x="692" d="M240 1014l282 338h90l166 -338h-90l-145 178l-205 -178h-98z" />
<glyph unicode="&#x2dc;" horiz-adv-x="929" d="M246 1128q78 84 142.5 121t133.5 37q63 0 90 -20l70 -47q52 -37 119 -37q51 0 78.5 13t87.5 65l45 -33q-88 -90 -148 -122t-139 -32q-90 0 -156 49q-48 36 -64 42.5t-48 6.5q-42 0 -79.5 -17.5t-88.5 -59.5z" />
<glyph unicode="&#x2000;" horiz-adv-x="913" />
<glyph unicode="&#x2001;" horiz-adv-x="1827" />
<glyph unicode="&#x2002;" horiz-adv-x="913" />
<glyph unicode="&#x2003;" horiz-adv-x="1827" />
<glyph unicode="&#x2004;" horiz-adv-x="609" />
<glyph unicode="&#x2005;" horiz-adv-x="456" />
<glyph unicode="&#x2006;" horiz-adv-x="304" />
<glyph unicode="&#x2007;" horiz-adv-x="304" />
<glyph unicode="&#x2008;" horiz-adv-x="228" />
<glyph unicode="&#x2009;" horiz-adv-x="365" />
<glyph unicode="&#x200a;" horiz-adv-x="101" />
<glyph unicode="&#x2010;" horiz-adv-x="563" d="M129 354l37 230h426l-37 -230h-426z" />
<glyph unicode="&#x2011;" horiz-adv-x="563" d="M129 354l37 230h426l-37 -230h-426z" />
<glyph unicode="&#x2012;" horiz-adv-x="563" d="M129 354l37 230h426l-37 -230h-426z" />
<glyph unicode="&#x2013;" horiz-adv-x="1126" d="M111 393l24 166h1024l-24 -166h-1024z" />
<glyph unicode="&#x2014;" horiz-adv-x="2048" d="M59 391l25 168h2048l-25 -168h-2048z" />
<glyph unicode="&#x2018;" d="M242 1022q24 168 276 354l72 -78q-80 -61 -117 -104.5t-43 -85.5q-7 -44 12.5 -70t73.5 -45q-35 -63 -71.5 -89.5t-88.5 -26.5q-63 0 -93.5 39t-20.5 106z" />
<glyph unicode="&#x2019;" d="M236 956q78 58 115.5 103t45.5 88q6 44 -13.5 70t-74.5 43q35 64 71 90t89 26q63 0 94 -38.5t21 -104.5q-24 -166 -277 -356z" />
<glyph unicode="&#x201a;" d="M68 -207q81 58 118 102t45 89q6 43 -14.5 69t-75.5 43q37 65 72.5 91t87.5 26q64 0 95 -38.5t20 -104.5q-24 -167 -277 -357z" />
<glyph unicode="&#x201c;" horiz-adv-x="837" d="M260 1018q24 166 277 356l69 -80q-80 -59 -117.5 -102.5t-44.5 -87.5q-6 -42 15 -68t76 -45q-37 -65 -72.5 -91t-87.5 -26q-64 0 -95 39t-20 105zM586 1018q24 167 276 356l70 -80q-80 -59 -117.5 -102.5t-44.5 -87.5q-6 -42 15 -68t75 -45q-37 -65 -72.5 -91t-87.5 -26 q-64 0 -94.5 39t-19.5 105z" />
<glyph unicode="&#x201d;" horiz-adv-x="837" d="M238 956q78 58 115.5 103t45.5 88q6 44 -13.5 70t-74.5 43q35 64 71 90t89 26q63 0 94 -38.5t21 -104.5q-24 -166 -277 -356zM563 956q79 58 116.5 103t45.5 88q6 44 -13.5 70t-74.5 43q35 64 71 90t89 26q63 0 93.5 -38.5t20.5 -104.5q-24 -167 -276 -356z" />
<glyph unicode="&#x201e;" horiz-adv-x="837" d="M61 -207q80 59 117.5 103t44.5 88q6 43 -13.5 69t-74.5 43q35 64 71 90.5t89 26.5q63 0 94 -38.5t21 -104.5q-24 -167 -277 -357zM387 -207q80 59 117.5 103t44.5 88q6 43 -13.5 69t-74.5 43q35 64 71 90.5t89 26.5q63 0 93.5 -38.5t20.5 -104.5q-24 -168 -276 -357z" />
<glyph unicode="&#x2022;" horiz-adv-x="720" d="M35 473q0 135 95 230.5t230 95.5t230.5 -95.5t95.5 -230.5t-95.5 -230.5t-230.5 -95.5t-230 95.5t-95 230.5z" />
<glyph unicode="&#x2026;" horiz-adv-x="1536" d="M119 115q0 57 40 97t97 40t97 -40t40 -97t-40 -97.5t-97 -40.5t-97 40.5t-40 97.5zM647 115q0 57 40 97t97 40t98.5 -40t41.5 -97t-41.5 -97.5t-98.5 -40.5t-97 40.5t-40 97.5zM1159 115q0 57 40 97t97 40t97.5 -40t40.5 -97t-40.5 -97.5t-97.5 -40.5t-97 40.5t-40 97.5z " />
<glyph unicode="&#x202f;" horiz-adv-x="365" />
<glyph unicode="&#x2039;" horiz-adv-x="681" d="M106 459l623 393l-12 -84l-293 -309l194 -309l-12 -87z" />
<glyph unicode="&#x203a;" horiz-adv-x="681" d="M55 63l13 87l290 309l-192 309l12 84l500 -393z" />
<glyph unicode="&#x205f;" horiz-adv-x="456" />
<glyph unicode="&#x2122;" horiz-adv-x="2048" d="M94 1135v245h78v-28h588v28h78v-245h-78v127h-191v-494h140v-78h-476v78h138v494h-199v-127h-78zM920 1272v80h331l164 -357l170 357h332v-80h-129v-504h119v-78h-416v78h108v424l-231 -502l-231 508v-430h102v-78h-309v78h119v504h-129z" />
<glyph unicode="&#xe000;" horiz-adv-x="952" d="M0 0v952h952v-952h-952z" />
<glyph unicode="&#xfb01;" horiz-adv-x="1073" d="M-385 -434l137 170q47 -57 100 -87.5t119 -51.5q82 31 135 364l132 844h-170l4 67l188 62l39 223q28 161 153.5 258.5t278.5 97.5q80 0 169 -24t151 -72l-146 -184q-22 28 -57 54.5t-51.5 35.5t-53.5 29l-77 41q-79 -24 -107.5 -72t-52.5 -188l-35 -205h272l129 20h95 l-125 -762q74 71 92 95q67 86 72 94l63 -51q-85 -122 -138 -181.5t-110 -103.5q-55 -44 -125 -55q-63 71 -63 145q0 49 8 102l88 574h-280l-140 -916q-28 -177 -153 -295t-283 -118q-116 0 -258 90z" />
<glyph unicode="&#xfb02;" horiz-adv-x="1048" d="M-385 -434l137 170q47 -57 100 -87.5t119 -51.5q83 32 135 364l132 844h-170l4 67l188 62l39 223q28 161 153.5 258.5t278.5 97.5q77 0 154 -24l73 20h95l-215 -1323q74 71 92 95q61 78 71 94l64 -51q-85 -122 -138 -181.5t-110 -103.5q-55 -44 -125 -55q-63 71 -63 145 q0 49 8 102l170 1076q-35 31 -64 45l-77 41q-79 -24 -107.5 -72t-52.5 -188l-35 -205h209l-18 -123h-213l-140 -916q-28 -177 -153 -295t-283 -118q-116 0 -258 90z" />
</font>
</defs>
</svg>
